<?xml version="1.0" encoding="utf-8"?>
<!-- Generator: Adobe Illustrator 19.0.0, SVG Export Plug-In . SVG Version: 6.00 Build 0)  -->
<svg version="1.1" id="图形" xmlns="http://www.w3.org/2000/svg" xmlns:xlink="http://www.w3.org/1999/xlink" x="0px" y="0px"
	 viewBox="15.167 -16.333 1000.636 1000.678" enable-background="new 15.167 -16.333 1000.636 1000.678" xml:space="preserve">
<g id="形状_2">
	<g>
		<path fill="#25BCFC" d="M458.03,837.12c-198.876,0-360.665-159.559-360.665-355.666c0-196.129,161.79-355.668,360.665-355.668
			c56.413,0,109.819,12.846,157.42,35.707l3.632-10.192l3.586-9.95c-49.909-23.59-105.737-36.789-164.639-36.789
			c-210.757,0-382.213,169.068-382.213,376.893c0,207.802,171.455,376.87,382.213,376.87c21.1,0,41.816-1.703,61.995-4.954
			c6.279-1.016,12.49-2.189,18.654-3.493l14.329-14.238l15.762-15.698c-6.996,2.255-14.104,4.29-21.302,6.104
			C518.861,833.273,488.906,837.12,458.03,837.12z M597.513,211.724c-42.197-21.379-89.998-33.45-140.669-33.45
			c-170.133,0-308.022,135.992-308.022,303.776c0,167.741,137.889,303.735,308.022,303.735c63.675,0,122.823-19.058,171.926-51.67
			c80.984-124.142,33.564-237.582,11.838-277.335l-108.653,45.367l-44.888,18.75l16.189-45.37L597.513,211.724z M456.843,515.058
			c-10.674,0-20.156-4.818-26.412-12.379H293.819c-11.907,0-21.547-9.509-21.547-21.225c0-11.741,9.641-21.225,21.547-21.225
			h136.589c1.458-1.77,3.095-3.382,4.865-4.82V224.88c0-11.741,9.687-21.225,21.57-21.225s21.524,9.484,21.524,21.225v230.507
			c7.668,6.169,12.556,15.542,12.556,26.067C490.924,500.003,475.677,515.058,456.843,515.058z M949.213,311.171L720.628,207.832
			l-34.864-15.741l-50.313-22.728l-0.762,2.124l-18.117,50.76l-93.004,260.355l125.895-52.574c0,0,85.852,123.854,22.085,269.819
			c-15.672,35.859-40.358,73.092-77.577,110.101c0,0,110.717-57.593,183.585-163.693c16.189-23.525,30.495-49.481,41.345-77.715
			c12.175-31.77,19.91-66.436,20.941-103.846c0.921-33.052-3.364-68.206-14.529-105.437L949.213,311.171z M541.483,849.259
			c-0.918,0.22-1.86,0.396-2.803,0.618l-1.816,1.791L541.483,849.259z"/>
	</g>
</g>
</svg>
