<?xml version="1.0" encoding="utf-8"?>
<!-- Generator: Adobe Illustrator 19.0.0, SVG Export Plug-In . SVG Version: 6.00 Build 0)  -->
<svg version="1.1" id="图形" xmlns="http://www.w3.org/2000/svg" xmlns:xlink="http://www.w3.org/1999/xlink" x="0px" y="0px"
	 viewBox="15.167 -16.333 1000.636 1000.678" enable-background="new 15.167 -16.333 1000.636 1000.678" xml:space="preserve">
<g id="圆角矩形_1_拷贝_4">
	<g>
		<path fill-rule="evenodd" clip-rule="evenodd" fill="#25BCFC" d="M692.453,221.266H822.47L649.114,53.404v131.37
			C649.114,208.959,668.517,221.266,692.453,221.266z M604.37,701.804h115.571V569.281H822.47V250.459H678.006
			c-31.914,0-57.785-26.141-57.785-58.387V46.106H100.152v875.8h619.789v-94.878H604.37V701.804z M417.972,710.254H222.946
			c-15.957,0-28.893-13.07-28.893-29.193s12.936-29.193,28.893-29.193h195.026c15.957,0,28.893,13.07,28.893,29.193
			S433.929,710.254,417.972,710.254z M417.972,578.884H222.946c-15.957,0-28.893-13.07-28.893-29.193s12.936-29.193,28.893-29.193
			h195.026c15.957,0,28.893,13.07,28.893,29.193S433.929,578.884,417.972,578.884z M504.65,447.514H222.946
			c-15.957,0-28.893-13.07-28.893-29.193c0-16.123,12.936-29.193,28.893-29.193H504.65c15.957,0,28.893,13.07,28.893,29.193
			C533.543,434.444,520.607,447.514,504.65,447.514z M822.47,723.699V606.925h-80.859v116.773h-99.72v81.434h99.72v116.773h80.859
			V805.133h108.348v-81.434H822.47z"/>
	</g>
</g>
</svg>
