<?xml version="1.0" encoding="utf-8"?>
<!-- Generator: Adobe Illustrator 19.0.0, SVG Export Plug-In . SVG Version: 6.00 Build 0)  -->
<svg version="1.1" id="图形" xmlns="http://www.w3.org/2000/svg" xmlns:xlink="http://www.w3.org/1999/xlink" x="0px" y="0px"
	 viewBox="15.167 -16.333 1000.636 1000.678" enable-background="new 15.167 -16.333 1000.636 1000.678" xml:space="preserve">
<g id="形状_2_拷贝_2">
	<g>
		<path fill-rule="evenodd" clip-rule="evenodd" fill="#71C241" d="M665.057,221.508h131.367L621.268,53.957v131.127
			C621.268,209.224,640.873,221.508,665.057,221.508z M780.143,920.852h-4.696C778.739,921.941,780.143,920.852,780.143,920.852z
			 M658.738,806.253c-62.109-57.988-29.178-77.449,0.008-108.943l28.614-28.938c10.648-10.768,29.973-10.768,40.621,0l55.895,56.713
			l12.547-12.71V250.648H650.46c-32.245,0-58.385-26.092-58.385-58.279V46.673H66.608v874.179h708.84
			c-2.651-0.878-6.526-3.168-11.889-8.592L658.738,806.253z M387.727,709.592h-197.05c-16.123,0-29.193-13.046-29.193-29.139
			c0-16.093,13.07-29.139,29.193-29.139h197.05c16.123,0,29.193,13.046,29.193,29.139
			C416.919,696.546,403.849,709.592,387.727,709.592z M387.727,578.465h-197.05c-16.123,0-29.193-13.046-29.193-29.139
			c0-16.093,13.07-29.139,29.193-29.139h197.05c16.123,0,29.193,13.046,29.193,29.139
			C416.919,565.419,403.849,578.465,387.727,578.465z M475.304,447.338H190.676c-16.123,0-29.193-13.046-29.193-29.139
			c0-16.093,13.07-29.139,29.193-29.139h284.628c16.123,0,29.193,13.046,29.193,29.139
			C504.497,434.292,491.427,447.338,475.304,447.338z M957.055,676.053l-24.967-24.716c-9.285-9.175-26.107-9.189-35.422,0.014
			l-115.16,114.156l-48.742-48.396c-9.285-9.189-26.137-9.189-35.422,0l-24.953,24.695c-4.65,4.588-7.313,10.983-7.313,17.535
			c0,6.538,2.664,12.926,7.307,17.52l91.406,90.461c4.642,4.595,11.097,7.231,17.711,7.231c6.621,0,13.075-2.636,17.703-7.231
			l157.852-156.213c4.642-4.594,7.307-10.983,7.307-17.528S961.697,680.647,957.055,676.053z"/>
	</g>
</g>
</svg>
