<?xml version="1.0" encoding="utf-8"?>
<!-- Generator: Adobe Illustrator 19.0.0, SVG Export Plug-In . SVG Version: 6.00 Build 0)  -->
<svg version="1.1" id="图形" xmlns="http://www.w3.org/2000/svg" xmlns:xlink="http://www.w3.org/1999/xlink" x="0px" y="0px"
	 viewBox="15.167 -16.333 1000.636 1000.678" enable-background="new 15.167 -16.333 1000.636 1000.678" xml:space="preserve">
<g id="圆角矩形_1_拷贝">
	<g>
		<path fill="#FFB400" d="M787.26,875.012h-19.416c-13.404,0-24.27,10.63-24.27,23.743s10.866,23.743,24.27,23.743h19.416
			c13.404,0,24.27-10.63,24.27-23.743S800.663,875.012,787.26,875.012z M898.989,377.941L538.909,45.514l-99.942,103.607
			l360.08,332.427L898.989,377.941z M661.058,875.012H156.25c-13.404,0-24.27,10.63-24.27,23.743s10.866,23.743,24.27,23.743
			h504.807c13.404,0,24.27-10.63,24.27-23.743S674.461,875.012,661.058,875.012z M217.504,323.355l-60.406,450.037l232.516-241.57
			c-15.441-23.324-13.428-54.706,6.936-75.817c23.918-24.796,63.855-25.928,89.201-2.528s26.503,62.469,2.584,87.265
			c-20.562,21.316-52.916,25.021-77.707,10.809L178.195,793.035l455.872-85.107l-3.56-3.286l88.7-231.51L448.619,223.323
			L217.504,323.355z"/>
	</g>
</g>
</svg>
