<?xml version="1.0" encoding="utf-8"?>
<!-- Generator: Adobe Illustrator 19.0.0, SVG Export Plug-In . SVG Version: 6.00 Build 0)  -->
<svg version="1.1" id="图形" xmlns="http://www.w3.org/2000/svg" xmlns:xlink="http://www.w3.org/1999/xlink" x="0px" y="0px"
	 viewBox="15.167 -16.333 1000.636 1000.678" enable-background="new 15.167 -16.333 1000.636 1000.678" xml:space="preserve">
<g id="圆角矩形_1_拷贝_5">
	<g>
		<path fill-rule="evenodd" clip-rule="evenodd" fill="#FD6F60" d="M751.007,773.198l-90.966-91.891l74.509-75.258l85.504,86.374
			V244.006H671.45c-32.829,0-59.442-26.863-59.442-60v-150H77.031v900h661.943l-73.582-74.322L751.007,773.198z M403.961,716.506
			H203.345c-16.414,0-29.721-13.431-29.721-30c0-16.568,13.307-30,29.721-30h200.616c16.414,0,29.721,13.431,29.721,30
			C433.682,703.074,420.376,716.506,403.961,716.506z M403.961,581.506H203.345c-16.414,0-29.721-13.432-29.721-30
			c0-16.568,13.307-30,29.721-30h200.616c16.414,0,29.721,13.432,29.721,30C433.682,568.074,420.376,581.506,403.961,581.506z
			 M493.124,446.506H203.345c-16.414,0-29.721-13.432-29.721-30c0-16.569,13.307-30,29.721-30h289.779
			c16.414,0,29.721,13.432,29.721,30C522.845,433.074,509.538,446.506,493.124,446.506z M686.31,214.006h133.744l-178.326-172.5v135
			C641.729,201.359,661.688,214.006,686.31,214.006z M953.939,686.713l-42.808-43.243l-85.615,86.485l-90.966-91.891l-42.808,43.243
			l90.966,91.891l-85.615,86.485l42.808,43.243l85.615-86.485l80.264,81.08l42.808-43.243l-80.264-81.08L953.939,686.713z
			 M820.054,934.006v-80.032l-79.226,80.032H820.054z"/>
	</g>
</g>
</svg>
