<?xml version="1.0" encoding="utf-8"?>
<!-- Generator: Adobe Illustrator 19.0.0, SVG Export Plug-In . SVG Version: 6.00 Build 0)  -->
<svg version="1.1" id="图形" xmlns="http://www.w3.org/2000/svg" xmlns:xlink="http://www.w3.org/1999/xlink" x="0px" y="0px"
	 viewBox="15.167 -16.333 1000.636 1000.678" enable-background="new 15.167 -16.333 1000.636 1000.678" xml:space="preserve">
<g id="矩形_1_拷贝_2">
	<g>
		<path fill-rule="evenodd" clip-rule="evenodd" fill="#FFB400" d="M490.636,484.006c0-13.688-11.064-24.785-24.711-24.785H110.401
			c-13.648,0-24.711,11.097-24.711,24.785c0,13.688,11.064,24.785,24.711,24.785h355.524
			C479.572,508.791,490.636,497.694,490.636,484.006z M214.566,397.141h190.246c13.557,0,24.548-11.112,24.548-24.819
			c0-13.707-10.99-24.819-24.548-24.819H214.566c-13.557,0-24.548,11.112-24.548,24.819
			C190.018,386.029,201.009,397.141,214.566,397.141z M833.857,262.668H945.28L817.995,118.036L801.33,231.307
			C798.271,252.096,813.344,262.668,833.857,262.668z M527.249,620.576c13.648,0,24.711-11.097,24.711-24.785
			c0-13.688-11.064-24.785-24.711-24.785H251.296c-13.648,0-24.711,11.097-24.711,24.785c0,13.688,11.064,24.785,24.711,24.785
			H527.249z M775.631,237.583l18.446-125.857H346.859l-30.845,226.028h124.933c13.719,0,24.319,11.184,23.677,24.972l-1.162,24.944
			c-0.641,13.764-12.263,24.915-25.959,24.915H305.802l-5.093,37.32h197.02c13.684,0,24.243,11.127,23.585,24.845l-1.191,24.817
			c-0.657,13.694-12.264,24.789-25.925,24.789H290.549l-5.067,37.131h268.741c13.649,0,24.167,11.07,23.493,24.719l-1.22,24.691
			c-0.673,13.625-12.265,24.663-25.891,24.663H275.373l-30.122,220.725h610.693l85.565-568.56H817.776
			C790.441,287.725,771.57,265.29,775.631,237.583z"/>
	</g>
</g>
</svg>
