<?xml version="1.0" encoding="utf-8"?>
<!-- Generator: Adobe Illustrator 17.0.0, SVG Export Plug-In . SVG Version: 6.00 Build 0)  -->
<!DOCTYPE svg PUBLIC "-//W3C//DTD SVG 1.1//EN" "http://www.w3.org/Graphics/SVG/1.1/DTD/svg11.dtd">
<svg version="1.1" id="图形" xmlns="http://www.w3.org/2000/svg" xmlns:xlink="http://www.w3.org/1999/xlink" x="0px" y="0px"
	 width="646.817px" height="646.822px" viewBox="0 0 646.817 646.822" enable-background="new 0 0 646.817 646.822"
	 xml:space="preserve">
<g>
	<g>
		<g>
			<path fill="#FFFFFF" d="M204.493,603.858c-1.092,0-2.309-0.272-3.617-0.811l-0.11-0.055l-8.434-4.997
				c-2.863-1.7-3.593-4.062-2.058-6.648l13.508-22.803c2.036-3.438,3.851-6.627,5.546-9.75l1.457-0.063l2.887,4.367l-0.613,1.313
				l-1.783,0.203l-6.836,11.548c0.542,0.018,1.077,0.027,1.602,0.027c4.202,0,8.021-0.596,11.35-1.77l1.11,0.604l1.116,4.652
				l-1.111,1c-1.181-0.418-3.32-0.743-6.359-0.967c-2.909-0.211-6.034-0.506-9.298-0.876l-8.178,13.794
				c-0.603,1.021-0.431,1.637,0.635,2.267l6.071,3.602c0.283,0.168,0.545,0.249,0.802,0.249c0.789,0,1.551-0.833,2.051-1.533
				c1.288-1.793,2.619-3.716,3.958-5.717l1.139-0.26l0.841,0.497l0.313,1.141c-2.303,4.206-2.967,5.875-3.119,6.534
				c-0.184,0.811-0.025,1.584,0.487,2.363l-0.237,1.173C206.71,603.551,205.66,603.858,204.493,603.858z M178.076,591.482
				l-0.563-1.29c2.092-3.308,3.811-6.087,5.226-8.451c-4.003-0.495-7.122-0.746-9.285-0.746c-1.154,0-2.037,0.07-2.624,0.209
				l-1.044-0.772l-0.266-4.146l1.223-0.818c1.312,0.644,5.84,1.921,13.463,3.8l7.512-12.668l-8.094-4.799l-1.678-0.379l-0.634-0.606
				l-0.571-2.104l1.254-0.954l11.077,6.56c3.107-5.254,5.316-9.111,6.57-11.474l1.427-0.117l3.078,4.037l-0.476,1.342l-2.047,0.497
				l-14.595,24.624c-1.354,2.292-2.958,5.133-4.765,8.442l-0.903,0.429L178.076,591.482z"/>
			<path fill="#FFFFFF" d="M200.392,553.241l3.078,4.037l-2.395,0.581l-14.778,24.933c-1.357,2.297-2.951,5.119-4.78,8.469
				l-3.285-0.615c2.311-3.654,4.283-6.846,5.901-9.585c-7.047-0.92-11.547-1.146-13.499-0.684l-0.266-4.146
				c1.412,0.693,6.167,2.031,14.247,4.013l8.267-13.942l-8.941-5.301l-1.809-0.408l-0.571-2.105l11.808,6.993
				C196.738,559.796,199.079,555.714,200.392,553.241z M204.513,568.978c1.943-3.28,3.802-6.536,5.562-9.777l2.887,4.367
				l-2.203,0.251l-7.77,13.126c5.562,0.344,10.46-0.231,14.685-1.721l1.116,4.652c-1.254-0.443-3.448-0.782-6.58-1.013
				c-3.128-0.227-6.393-0.541-9.811-0.935l-8.459,14.267c-0.841,1.426-0.531,2.567,0.934,3.433l6.069,3.6
				c1.353,0.802,2.681,0.295,3.979-1.52c1.303-1.814,2.626-3.727,3.973-5.739l0.841,0.497c-1.893,3.457-2.961,5.705-3.201,6.752
				c-0.236,1.038-0.035,2.046,0.605,3.02c-1.515,1.018-3.496,1.028-5.941,0.024l-8.434-4.997c-2.474-1.47-3.059-3.294-1.76-5.483
				L204.513,568.978z"/>
			<path fill="#FFFFFF" d="M252.731,622.767c-1.106,0-1.765-0.943-1.959-2.803c-0.126-1.228-1.024-4.354-4.592-12.284l0.406-1.114
				l0.742-0.358l1.011,0.207c6.875,7.896,7.656,10.425,7.646,11.641c-0.012,1.958-0.684,3.397-1.996,4.274
				C253.545,622.625,253.134,622.767,252.731,622.767z M233.119,619.025l-0.805-1.008c0.286-1.51-1.009-3.186-3.848-4.979
				l-0.281-1.146l0.491-0.846l1.141-0.32c1.913,1.038,3.558,1.827,4.889,2.344c0.201,0.078,0.382,0.117,0.539,0.117
				c0.506,0,0.935-0.514,1.273-1.526l3.452-10.217l-6.752-2.279l-0.215,0.64l-0.721,0.574l-3.211,0.325l-0.877-1.157
				c0.928-2.36,1.832-4.84,2.764-7.58c0.883-2.627,1.668-5.158,2.333-7.521l1.444-0.346l2.271,2.466l18.027,6.087l1.961-1.066
				l1.149,0.333l1.933,3.472l-0.555,1.243l-1.33,0.303c-1.486,4.42-2.449,7.47-2.941,9.316l-0.693,0.622l-3.275,0.502l-0.935-1.111
				l0.398-1.188l-6.563-2.215l-4.061,12.025c-1.085,2.764-3.29,4.145-6.566,4.146C233.413,619.034,233.267,619.031,233.119,619.025z
				 M251.594,602.56l2.509-7.423l-17.533-5.917l-2.505,7.421L251.594,602.56z M214.707,610.945l-0.123-0.852l0.562-0.925
				c8.423-2.938,13.852-5.666,16.134-8.108l1.355,0.152l2.493,4.268l-0.849,1.271l-1.731-0.235
				c-4.942,2.334-10.611,4.064-16.854,5.145L214.707,610.945z M231.087,580.73c-1.021-0.35-2.119-0.532-3.264-0.545l-0.7-0.382
				l-1.367-2.07l0.981-1.274l20.274,6.842c-0.059-0.336-0.081-0.727-0.067-1.179c0.05-1.659-0.447-3.711-1.476-6.101l0.271-1.017
				l0.551-0.413l1.046,0.021c3.033,2.462,4.562,4.457,4.674,6.101c0.097,1.578-0.521,2.839-1.789,3.672l11.52,3.889l3.785-1.529
				l1.075,0.4l2.498,4.874l-1.029,1.193L231.087,580.73z"/>
			<path fill="#FFFFFF" d="M232.412,605.64c-4.937,2.361-10.558,4.092-16.863,5.183l-0.123-0.851c8.601-3,14.09-5.779,16.475-8.331
				l2.493,4.268L232.412,605.64z M261.771,589.18l4.077-1.648l2.498,4.874l-36.987-12.481c-1.107-0.379-2.287-0.576-3.526-0.59
				l-1.367-2.07L261.771,589.18z M254.429,606.034l-3.275,0.502l0.669-1.992l-8.173-2.759l-4.333,12.831
				c-0.978,2.488-3.034,3.674-6.167,3.56c0.359-1.898-1.047-3.846-4.229-5.857l0.491-0.846c1.982,1.077,3.644,1.869,4.987,2.39
				c1.343,0.522,2.321-0.123,2.926-1.932l3.723-11.021l-8.365-2.823l-0.487,1.446l-3.211,0.325c0.978-2.488,1.898-5.031,2.778-7.618
				c0.871-2.591,1.657-5.114,2.346-7.564l2.419,2.626l18.585,6.275l2.287-1.244l1.933,3.472l-1.795,0.408
				C255.998,600.781,254.955,604.061,254.429,606.034z M232.987,597.176l19.14,6.462l3.054-9.034l-19.145-6.462L232.987,597.176z
				 M246.802,575.272c2.818,2.287,4.268,4.126,4.362,5.498c0.084,1.367-0.467,2.39-1.662,3.059
				c-1.195,0.674-1.761,0.113-1.707-1.682s-0.462-3.949-1.544-6.462L246.802,575.272z M247.697,606.973
				c4.972,5.71,7.451,9.398,7.436,11.075c-0.01,1.672-0.551,2.862-1.618,3.575c-1.072,0.713-1.702,0.128-1.898-1.746
				c-0.192-1.874-1.746-6.064-4.662-12.545L247.697,606.973z"/>
			<path fill="#FFFFFF" d="M295.355,631.599c0.577-3.722,0.968-6.444,1.161-8.093l2.995-25.191c0.281-2.322,0.497-4.67,0.66-7.178
				l1.413-0.581l2.304,2.045l8.156,0.967l1.894-1.452l1.209,0.18l2.71,3.782l-0.55,1.334c-0.747,0.125-2.002,0.839-3.74,3.527
				c-1.439,2.233-2.994,4.682-4.66,7.341c3.351,4.238,4.941,7.766,4.86,10.771c-0.086,3.105-0.926,5.358-2.497,6.697
				c-1.531,1.289-3.193,2.048-4.945,2.259l-0.952-0.827c-0.031-1.514-1.515-2.74-4.411-3.647l-0.318-0.397l-0.914,7.672
				l-0.542,0.694l-2.69,1.023L295.355,631.599z M301.377,620.937c2.143,0.633,4.013,1.077,5.558,1.322
				c0.156,0.024,0.306,0.038,0.45,0.038c0.608,0,1.368-0.199,1.845-1.749c0.488-1.617,0.404-3.563-0.249-5.779
				c-0.663-2.259-1.719-4.225-3.139-5.841l-0.13-0.924l5.583-11.851l-7.333-0.875l-3.107,26.083L301.377,620.937z M288.409,626.964
				l0.368-3.141l-12.91-1.531l-0.445,3.701l-0.589,0.71l-2.665,0.837l-1.093-0.954c0.427-2.509,0.756-4.719,0.976-6.568
				l2.572-21.589c0.221-1.899,0.396-3.932,0.521-6.037l1.404-0.594l2.13,1.837l4.931,0.586c0.397-3.404,0.685-6.36,0.855-8.797
				l1.308-0.656l3.669,2.355l-0.135,1.502l-0.994,0.41l-0.676,5.664l4.541,0.542l1.317-1.566l1.272-0.034l2.626,2.809l-0.152,1.29
				l-1.387,0.918l-2.584,21.773c-0.128,1.063-0.291,2.927-0.527,6.047l-0.645,0.762l-2.641,0.649L288.409,626.964z M289.094,621.194
				l1.24-10.434l-4.547-0.546l-1.236,10.435L289.094,621.194z M280.526,620.167l1.236-10.43l-4.345-0.517l-1.241,10.433
				L280.526,620.167z M290.648,608.117l1.219-10.241l-4.542-0.537l-1.22,10.237L290.648,608.117z M282.081,607.104l1.215-10.245
				l-4.345-0.517l-1.22,10.245L282.081,607.104z"/>
			<path fill="#FFFFFF" d="M272.895,620.118l2.572-21.589c0.221-1.893,0.398-3.924,0.526-6.088l2.327,2.007l6.034,0.718
				c0.452-3.787,0.772-7.013,0.959-9.683l3.669,2.356l-1.455,0.6l-0.836,7.003l5.842,0.698l1.613-1.918l2.626,2.808l-1.716,1.136
				l-2.631,22.164c-0.137,1.136-0.31,3.167-0.531,6.083l-2.641,0.649l0.467-3.983l-14.596-1.731l-0.546,4.544l-2.665,0.836
				C272.34,624.22,272.669,622.016,272.895,620.118z M275.232,620.398l6.039,0.713l1.436-12.118l-6.034-0.718L275.232,620.398z
				 M276.786,607.332l6.039,0.718l1.416-11.935l-6.034-0.718L276.786,607.332z M283.607,621.392l6.231,0.747l1.441-12.122
				l-6.236-0.748L283.607,621.392z M285.161,608.32l6.231,0.742l1.421-11.93l-6.231-0.738L285.161,608.32z M312.567,595.45
				l-9.349-1.116l-4.333,36.372l-2.69,1.023c0.585-3.772,0.973-6.482,1.165-8.124l2.995-25.189c0.291-2.4,0.507-4.805,0.664-7.224
				l2.503,2.223l8.764,1.038l2.168-1.662l2.71,3.782c-1.343,0.226-2.778,1.529-4.313,3.904c-1.534,2.38-3.197,5.002-4.987,7.864
				c3.448,4.249,5.129,7.814,5.051,10.686c-0.079,2.867-0.812,4.893-2.198,6.074c-1.397,1.175-2.897,1.869-4.495,2.061
				c-0.039-1.928-1.707-3.408-5.007-4.441l-0.079-0.968c2.164,0.639,4.052,1.091,5.665,1.347c1.618,0.256,2.69-0.511,3.241-2.301
				c0.541-1.795,0.457-3.885-0.246-6.27c-0.703-2.395-1.809-4.446-3.315-6.162L312.567,595.45z"/>
			<path fill="#FFFFFF" d="M347.643,631.621c-2.738,0-4.372-1.513-4.601-4.259l-0.72-8.46l-10.024,0.851l0.17,1.999l-0.432,0.814
				l-2.818,1.579l-1.266-0.696c-0.229-4.271-0.563-8.606-0.995-12.891c-0.401-4.024-0.854-8.238-1.386-12.883l1.168-0.883
				l3.277,1.349l10.469-0.885c-0.294-3.322-0.62-6.405-0.972-9.174l1.136-0.906l4.667,1.706l0.312,1.398l-1.174,1.181l0.464,5.415
				l10.722-0.912l1.568-1.801l1.181-0.1l2.961,2.425l0.029,1.291l-1.332,1.197c0.853,10.017,1.431,16.075,1.769,18.518l-0.427,0.857
				l-2.818,1.583l-1.264-0.671l-0.135-1.62l-10.422,0.879l0.671,7.896c0.069,0.822,0.414,1.128,1.27,1.128
				c0.104,0,0.213-0.005,0.326-0.015l13.482-1.142c0.683-0.137,0.99-0.514,1.006-1.333c0.03-1.204-0.045-3.655-0.225-7.288
				l0.781-0.89l0.979-0.079l0.916,0.776c0.317,3.762,0.779,5.27,1.111,5.871c0.452,0.82,1.105,1.483,1.943,1.974l0.358,1.058
				c-0.495,1.205-1.191,2.122-2.072,2.728c-0.873,0.597-2.074,0.953-3.673,1.091l-15.237,1.289
				C348.13,631.609,347.881,631.621,347.643,631.621z M332.071,617.108l10.028-0.854l-0.603-7.049l-10.02,0.854L332.071,617.108z
				 M346.529,615.875l10.413-0.879l-0.594-7.045l-10.418,0.885L346.529,615.875z M331.253,607.416l10.024-0.851l-0.564-6.67
				l-10.028,0.85L331.253,607.416z M345.707,606.186l10.414-0.885l-0.564-6.666l-10.414,0.885L345.707,606.186z"/>
			<path fill="#FFFFFF" d="M340.358,587.975l4.667,1.707l-1.451,1.46l0.57,6.654l11.911-1.013l1.795-2.06l2.961,2.424l-1.647,1.481
				c0.861,10.136,1.46,16.46,1.809,18.983l-2.818,1.583l-0.206-2.469l-12.118,1.023l0.743,8.744
				c0.118,1.391,0.959,2.026,2.518,1.888l13.479-1.141c1.171-0.226,1.761-0.944,1.785-2.164c0.03-1.21-0.044-3.664-0.226-7.347
				l0.979-0.079c0.266,3.162,0.674,5.233,1.215,6.211c0.536,0.974,1.299,1.736,2.258,2.297c-0.433,1.057-1.023,1.839-1.766,2.35
				c-0.743,0.507-1.835,0.821-3.265,0.944l-15.235,1.289c-2.734,0.236-4.215-0.91-4.426-3.448l-0.792-9.309l-11.719,0.994
				l0.241,2.847l-2.818,1.579c-0.231-4.318-0.565-8.631-0.999-12.929c-0.428-4.298-0.895-8.596-1.387-12.895l3.467,1.427
				l11.523-0.974C341.091,594.348,340.742,590.999,340.358,587.975z M330.478,608.335l11.719-0.994l-0.708-8.365l-11.724,0.994
				L330.478,608.335z M331.295,618.028l11.724-0.998l-0.747-8.744l-11.714,0.999L331.295,618.028z M344.932,607.105l12.108-1.028
				l-0.708-8.36l-12.108,1.028L344.932,607.105z M345.753,616.794l12.108-1.023l-0.738-8.739l-12.113,1.028L345.753,616.794z"/>
			<path fill="#FFFFFF" d="M379.936,628.586l-0.408-0.68l0.19-1.096c3.743-3.065,6.706-6.441,8.805-10.034
				c2.08-3.567,3.178-7.323,3.263-11.161c0.089-3.63-0.29-7.407-1.125-11.244l-14.771,4.437l-1.413,0.976l-0.876,0.055l-1.938-1.008
				l0.148-1.569l18.152-5.445c-1.851-6.128-3.104-10.074-3.826-12.052l0.907-1.136l5.11,0.659l0.634,1.259l-0.892,1.594l2.505,8.338
				l13.691-4.104l1.695-3.042l1.136-0.341l4.608,2.396l-0.148,1.569l-20.218,6.063l0.217,0.721
				c2.539,3.995,6.129,7.771,10.672,11.228c4.241,3.235,9.334,4.875,15.138,4.875c0.357,0,0.717-0.006,1.079-0.018l0.844,0.608
				l0.216,0.729l-0.519,1.038c-1.576,0.588-2.523,1.58-2.895,3.033l-1.028,0.614c-4.951-1.223-9.674-3.575-14.036-6.991
				c-3.371-2.647-6.268-5.596-8.645-8.795c0.482,6.383-0.403,11.68-2.646,15.782c-2.607,4.783-6.785,9.16-12.418,13.007
				L379.936,628.586z"/>
			<path fill="#FFFFFF" d="M386.935,579.472l5.11,0.659l-1.067,1.908l2.852,9.497l14.837-4.446l1.864-3.344l4.608,2.395
				l-21.034,6.309l0.497,1.647c2.602,4.126,6.25,7.982,10.937,11.547c4.686,3.575,10.273,5.247,16.76,5.031l0.216,0.728
				c-1.844,0.688-2.98,1.888-3.422,3.619c-4.859-1.2-9.428-3.477-13.716-6.836c-4.284-3.364-7.746-7.166-10.386-11.424
				c1.102,7.77,0.384,13.992-2.174,18.673c-2.552,4.682-6.6,8.921-12.152,12.713l-0.408-0.679c3.836-3.142,6.836-6.56,9-10.264
				c2.159-3.703,3.29-7.563,3.379-11.571c0.098-4.013-0.355-8.124-1.348-12.339l-15.772,4.736l-1.524,1.052l-1.938-1.008
				l18.968-5.69C389.079,585.934,387.722,581.626,386.935,579.472z"/>
			<path fill="#FFFFFF" d="M449.942,602.146c-0.133-0.286-0.538-1.156-2.812-1.156c-1.016,0-2.278,0.178-3.755,0.528l-0.943-0.421
				l-0.364-0.669l0.427-1.194c3.166-1.285,5.058-2.08,5.954-2.503c0.143-0.066,0.319-0.172,0.361-0.301
				c0.021-0.063,0.063-0.309-0.238-0.863l-3.251-5.946l-12.492,6.836c-1.171,0.635-2.167,1.382-2.964,2.22l-0.846,0.233l-2.105-0.59
				l-0.179-1.565l17.303-9.457c-0.502-0.872-1.113-1.864-1.822-2.962l0.703-1.313l1.867-0.022l2.205-5.596l-13.076,7.15
				c-1.192,0.657-2.188,1.403-2.957,2.219l-0.844,0.236l-2.11-0.58l-0.183-1.566l19.502-10.665l0.869-2.407l1.048-0.524l5.365,1.638
				l0.021,1.62c-1.193,0.397-2.314,1.346-3.33,2.819c-0.94,1.36-2.141,3.282-3.576,5.727l0.274-0.025l0.813,1.273l-0.313,0.541
				l9.417-5.144l1.186-3.854l1.003-0.579l5.878,1.352l0.218,1.575l-16.97,9.276l3.793,6.949c1.149,1.877,1.802,4.822-1.738,7.985
				L449.942,602.146z M423.738,589.752c-0.132,0-0.264-0.007-0.397-0.022c-0.686-0.08-1.059-0.448-1.25-0.742
				c-0.436-0.667-0.429-1.657,0.021-3.116c0.482-1.563,0.216-3.951-0.794-7.099l0.399-1.005l0.855-0.472l1.156,0.338l0.69,1.264
				l4.105-2.244c-0.56-0.207-1.147-0.702-1.835-1.532c-1.245-1.503-3.537-3.046-6.813-4.587l-0.449-1.023l0.246-0.787l0.836-0.596
				c5.755,0.165,8.856,1.016,9.762,2.675c0.844,1.538,1.014,3.075,0.505,4.566c-0.008,0.022-0.016,0.045-0.024,0.067l11.272-6.161
				c0.435-5.305,0.193-9.748-0.717-13.213l0.877-1.064l5.326,0.344l0.353,1.595c-0.238,0.131-1.441,1.249-2.765,10.655l7.513-4.108
				l0.868-2.809l1.121-0.542l5.109,1.987l0.101,1.538c-1.958,1.074-3.535,3.81-4.688,8.129l-0.879,0.63l-0.7-0.048l-0.79-0.914
				l0.401-5.243L425.9,581.113c0.816,1.404,1.308,2.635,1.496,3.744c0.255,1.438-0.081,2.698-0.973,3.639
				C425.639,589.329,424.735,589.752,423.738,589.752z M436.772,571.679c-1.016,0-1.816-1.004-2.331-1.76
				c-1.07-1.581-3.142-3.316-6.158-5.158l-0.248-1.221l0.507-0.708l0.828-0.345c6.873,1.117,8.393,2.308,8.949,3.22
				c0.814,1.327,0.88,2.839,0.192,4.492C438.015,571.421,437.291,571.679,436.772,571.679z"/>
			<path fill="#FFFFFF" d="M429.524,571.21c0.733,1.337,0.875,2.631,0.447,3.885c-0.438,1.249-1.308,1.077-2.626-0.516
				c-1.323-1.598-3.688-3.207-7.106-4.815l0.246-0.787C425.781,569.13,428.795,569.873,429.524,571.21z M453.601,571.52l0.521-6.806
				l-29.413,16.081c1.028,1.613,1.647,3.015,1.849,4.205c0.211,1.19-0.044,2.164-0.752,2.911c-0.704,0.748-1.5,1.072-2.37,0.974
				c-0.88-0.103-1.047-1.028-0.512-2.764c0.541-1.751,0.27-4.284-0.797-7.608l0.856-0.472l1.097,2.011l18.752-10.249
				c0.497-5.63,0.261-10.288-0.703-13.957l5.326,0.344c-1.259,0.688-2.4,5.006-3.423,12.954l9.29-5.08l0.969-3.138l5.11,1.987
				c-2.179,1.195-3.88,4.082-5.1,8.655L453.601,571.52z M448.811,597.501c0.949-0.443,1.116-1.224,0.507-2.341l-3.659-6.693
				l-13.239,7.244c-1.268,0.688-2.321,1.485-3.172,2.38l-2.105-0.59l18.058-9.87c-0.55-1.004-1.303-2.258-2.272-3.757l2.439-0.03
				l3.275-8.311l-15.137,8.277c-1.259,0.693-2.322,1.485-3.167,2.38l-2.11-0.58l19.784-10.819l0.979-2.71l5.365,1.638
				c-1.387,0.462-2.636,1.51-3.762,3.142c-1.121,1.623-2.602,4.023-4.441,7.209l1.918-0.177l-0.919,1.583l0.457,0.836l11.011-6.014
				l1.288-4.185l5.877,1.352l-17.714,9.683l4.2,7.696c1.465,2.395,0.94,4.711-1.559,6.944c-0.807-1.736-3.315-2.1-7.534-1.097
				l-0.364-0.669C445.865,598.784,447.862,597.948,448.811,597.501z M437.593,566.15c0.664,1.082,0.713,2.327,0.133,3.723
				c-0.571,1.406-1.431,1.259-2.582-0.433c-1.146-1.692-3.285-3.492-6.418-5.405l0.507-0.708
				C434.136,564.124,436.93,565.063,437.593,566.15z"/>
		</g>
		<g>
			<path fill="#FFFFFF" d="M148.885,567.298c-2.627-1.973-4.22-4.008-4.735-6.05c-0.53-2.117,0.054-4.321,1.735-6.553
				c1.156-1.548,2.479-2.595,3.931-3.108c0.588-0.207,1.272-0.312,2.033-0.312c0.613,0,1.278,0.064,2.006,0.195
				c-1.086-1.923-1.56-3.712-1.41-5.337c0.192-2.089,0.955-4.03,2.268-5.771c1.671-2.228,3.829-3.443,6.412-3.611
				c0.198-0.013,0.396-0.02,0.594-0.02c2.347,0,4.747,0.909,7.132,2.702l9.594,7.201l0.171,1.188l-0.683,0.915l-1.19,0.173
				l-1.225-0.915c-0.433-0.327-0.639-0.337-0.661-0.337c-0.122,0.017-0.284,0.149-0.441,0.355l-16.333,21.777
				c-0.148,0.201-0.213,0.367-0.188,0.488c0.006,0.028,0.07,0.27,0.658,0.711l1.037,0.776l0.169,1.191l-0.688,0.915l-1.19,0.17
				L148.885,567.298z M154.622,554.846c-0.22,0-0.446,0.01-0.678,0.03c-1.432,0.127-2.815,1.064-4.109,2.786
				c-1.195,1.591-1.618,3.028-1.255,4.271c0.387,1.338,1.325,2.572,2.788,3.669l1.824,1.367c0.241,0.181,0.46,0.269,0.667,0.269
				c0.069-0.002,0.211-0.005,0.423-0.288l6.572-8.758l-3.269-2.45C156.781,555.139,155.812,554.846,154.622,554.846z
				 M163.991,540.695c-0.312,0-0.629,0.031-0.943,0.093c-1.542,0.3-2.99,1.338-4.303,3.084c-1.534,2.046-2.218,3.894-2.033,5.489
				c0.192,1.576,1.213,3.072,3.035,4.439l2.816,2.114l8.062-10.748c0.213-0.281,0.175-0.427,0.163-0.474
				c-0.051-0.201-0.2-0.394-0.447-0.58l-2.737-2.06C166.398,541.152,165.182,540.695,163.991,540.695z"/>
			<path fill="#FFFFFF" d="M177.934,547.315l-0.683,0.915l-1.225-0.915c-0.502-0.379-0.939-0.546-1.293-0.497
				s-0.688,0.28-0.994,0.683l-16.337,21.781c-0.305,0.413-0.418,0.802-0.339,1.175c0.079,0.379,0.403,0.782,0.979,1.215l1.037,0.777
				l-0.688,0.915l-8.995-6.747c-2.484-1.864-3.954-3.723-4.421-5.577c-0.467-1.864,0.059-3.802,1.589-5.833
				c1.062-1.421,2.242-2.36,3.536-2.818c1.298-0.457,3.167-0.319,5.631,0.413c-1.805-2.469-2.617-4.662-2.439-6.59
				c0.177-1.928,0.875-3.713,2.1-5.336c1.524-2.031,3.448-3.123,5.788-3.275c2.34-0.152,4.726,0.684,7.16,2.513L177.934,547.315z
				 M149.155,557.151c-1.372,1.825-1.835,3.501-1.392,5.021c0.443,1.529,1.476,2.897,3.094,4.111l1.824,1.367
				c0.408,0.305,0.811,0.448,1.22,0.438c0.403-0.01,0.757-0.221,1.062-0.629l7.082-9.437l-3.949-2.961
				c-1.122-0.841-2.523-1.18-4.225-1.033C152.169,554.18,150.601,555.228,149.155,557.151z M168.113,541.374
				c-1.721-1.288-3.467-1.765-5.228-1.421c-1.766,0.344-3.374,1.485-4.82,3.408c-1.677,2.237-2.41,4.268-2.198,6.098
				c0.222,1.824,1.343,3.501,3.369,5.021l3.496,2.626l8.572-11.429c0.305-0.403,0.408-0.806,0.305-1.2
				c-0.098-0.389-0.354-0.738-0.757-1.043L168.113,541.374z"/>
			<path fill="#FFFFFF" d="M119.282,542.107l-0.197-0.979l2.828-6.183l1.077-0.441l0.954,0.364l0.52,1.011
				c-0.513,1.96-0.684,3.646-0.505,5.01c0.175,1.282,0.688,2.303,1.568,3.114l3.915,3.615c0.222,0.21,0.435,0.319,0.641,0.332
				c0.006,0,0.013,0,0.02,0c0.086,0,0.225-0.017,0.433-0.243l7.425-8.047l-3.427-3.161c-0.682-0.631-1.309-0.951-1.866-0.951
				c-0.048,0-0.096,0.003-0.144,0.008c-0.636,0.06-1.316,0.479-2.026,1.246l-0.777,0.841l-1.202,0.048l-0.836-0.772l-0.048-1.202
				l7.613-8.247l1.204-0.046l0.836,0.777l0.041,1.205l-0.516,0.55c-0.808,0.885-1.259,1.717-1.333,2.463
				c-0.069,0.669,0.25,1.322,0.978,1.999l3.428,3.159l9.118-9.88c0.241-0.262,0.219-0.411,0.211-0.468
				c-0.031-0.191-0.165-0.405-0.396-0.624l-3.627-3.348c-1.267-1.161-2.622-1.775-4.141-1.876c-0.132-0.009-0.266-0.014-0.401-0.014
				c-1.435,0-3.072,0.501-4.867,1.488l-1.178-0.381l-0.438-0.924l0.324-1.089l6.57-4.033l1.021,0.1l14.276,13.165l0.048,1.202
				l-0.777,0.841l-1.204,0.046l-0.836-0.777c-0.423-0.383-0.605-0.388-0.607-0.388c-0.134,0.006-0.302,0.116-0.485,0.313
				l-18.462,20.011c-0.168,0.184-0.26,0.353-0.25,0.462c0.002,0.023,0.022,0.247,0.514,0.704l0.743,0.677l0.054,1.204l-0.772,0.841
				l-1.203,0.05L119.282,542.107z"/>
			<path fill="#FFFFFF" d="M134.47,553.413l-0.772,0.841l-13.839-12.772l2.828-6.182l0.954,0.364
				c-0.546,2.085-0.718,3.865-0.526,5.336c0.201,1.476,0.807,2.681,1.835,3.629l3.914,3.615c0.369,0.349,0.767,0.531,1.166,0.556
				c0.408,0.029,0.787-0.143,1.131-0.517l8.001-8.67l-4.052-3.738c-0.929-0.861-1.819-1.249-2.67-1.165
				c-0.846,0.079-1.707,0.585-2.567,1.515l-0.777,0.841l-0.836-0.772l7.613-8.247l0.836,0.777l-0.516,0.55
				c-0.939,1.028-1.465,2.011-1.559,2.961c-0.098,0.944,0.32,1.844,1.244,2.705l4.057,3.738l9.694-10.504
				c0.344-0.374,0.486-0.762,0.428-1.166c-0.064-0.398-0.285-0.772-0.654-1.121l-3.634-3.354c-1.406-1.289-2.956-1.987-4.662-2.1
				c-1.717-0.113-3.625,0.418-5.734,1.578l-0.438-0.924l6.57-4.033l14.276,13.165l-0.777,0.841l-0.836-0.777
				c-0.467-0.423-0.875-0.634-1.234-0.614c-0.359,0.015-0.708,0.206-1.058,0.58l-18.466,20.016
				c-0.344,0.374-0.506,0.747-0.472,1.116c0.025,0.369,0.285,0.787,0.782,1.249L134.47,553.413z"/>
			<path fill="#FFFFFF" d="M108.662,531.225L98.6,519.831l0.073-1.199l0.861-0.763l1.202,0.074l2.892,3.28
				c0.205,0.223,0.417,0.358,0.636,0.402c0.147-0.001,0.286-0.07,0.44-0.206l20.37-18.004c0.264-0.233,0.257-0.378,0.254-0.432
				c-0.01-0.208-0.115-0.421-0.319-0.648l-2.901-3.28l0.077-1.203l0.87-0.762l1.197,0.076l10.062,11.39l-0.074,1.2l-0.861,0.762
				l-1.2-0.073l-2.897-3.274c-0.384-0.438-0.579-0.457-0.587-0.457c-0.122,0-0.291,0.092-0.479,0.26l-20.376,18.001
				c-0.191,0.168-0.308,0.334-0.314,0.445c0,0.003-0.006,0.2,0.385,0.647l2.895,3.265l-0.074,1.203l-0.871,0.767L108.662,531.225z"
				/>
			<path fill="#FFFFFF" d="M110.171,529.896l-0.871,0.767l-10.062-11.395l0.861-0.762l2.892,3.28
				c0.344,0.374,0.713,0.595,1.106,0.674c0.403,0.064,0.792-0.069,1.171-0.403l20.37-18.004c0.379-0.334,0.561-0.703,0.541-1.111
				c-0.02-0.403-0.197-0.797-0.536-1.175l-2.897-3.275l0.87-0.762l10.062,11.39l-0.861,0.762l-2.897-3.275
				c-0.418-0.477-0.807-0.718-1.166-0.742c-0.359-0.02-0.723,0.137-1.101,0.472l-20.375,18c-0.379,0.334-0.581,0.683-0.6,1.037
				c-0.02,0.359,0.177,0.777,0.595,1.254L110.171,529.896z"/>
			<path fill="#FFFFFF" d="M86.974,505.025l-9.088-12.697l0.194-1.185l0.914-0.659l1.189,0.195l2.66,3.724
				c0.177,0.243,0.367,0.396,0.563,0.451l0.105,0.017c0.105,0,0.232-0.054,0.378-0.16l21.993-15.74
				c1.857-1.33,3.773-2.004,5.694-2.004c0.623,0,1.255,0.071,1.879,0.213c2.517,0.56,4.644,2.029,6.316,4.367
				c1.228,1.72,1.811,3.269,1.782,4.737c-0.036,1.542-0.587,2.705-1.637,3.461c-0.617,0.439-1.243,0.662-1.862,0.662
				c-0.206,0-0.412-0.025-0.612-0.074c-0.762-0.185-1.363-0.575-1.783-1.162c-0.514-0.715-0.68-1.519-0.476-2.322
				c0.191-0.769,0.633-1.406,1.312-1.894c0.269-0.198,0.55-0.343,0.85-0.434c0.1-0.031,0.211-0.054,0.333-0.067
				c-0.011-0.104-0.031-0.213-0.062-0.327c-0.107-0.418-0.355-0.897-0.742-1.438c-0.824-1.15-1.825-1.789-3.059-1.953
				c-0.123-0.017-0.245-0.024-0.371-0.024c-1.206,0-2.814,0.715-4.781,2.125l-21.995,15.74c-0.211,0.151-0.347,0.305-0.364,0.412
				c-0.002,0.013-0.021,0.204,0.321,0.688l2.653,3.704l-0.199,1.188l-0.92,0.654L86.974,505.025z"/>
			<path fill="#FFFFFF" d="M86.172,497.886c-0.413,0.295-0.654,0.619-0.709,0.974c-0.059,0.354,0.099,0.787,0.467,1.308l2.656,3.708
				l-0.92,0.654l-9.088-12.697l0.914-0.659l2.66,3.723c0.295,0.408,0.64,0.669,1.028,0.777c0.393,0.113,0.797,0.025,1.21-0.275
				l21.988-15.737c2.267-1.623,4.569-2.179,6.89-1.653c2.326,0.517,4.264,1.869,5.813,4.033c1.106,1.549,1.648,2.951,1.623,4.225
				c-0.03,1.268-0.457,2.193-1.284,2.788c-0.615,0.438-1.21,0.59-1.775,0.452c-0.571-0.138-0.999-0.418-1.294-0.831
				c-0.369-0.512-0.486-1.057-0.344-1.618c0.143-0.575,0.467-1.042,0.983-1.412c0.206-0.152,0.403-0.251,0.6-0.31
				c0.187-0.059,0.462-0.064,0.816-0.005c0.163-0.422,0.172-0.9,0.03-1.426c-0.133-0.521-0.428-1.092-0.871-1.711
				c-0.959-1.338-2.168-2.105-3.639-2.301c-1.47-0.202-3.384,0.55-5.759,2.252L86.172,497.886z"/>
			<path fill="#FFFFFF" d="M71.482,481.941l-7.549-13.22l0.317-1.16l0.999-0.57l1.16,0.317l2.168,3.802
				c0.156,0.271,0.331,0.446,0.516,0.519c0.042,0.017,0.083,0.024,0.126,0.024c0.1,0,0.229-0.043,0.374-0.125l23.613-13.488
				c0.307-0.174,0.329-0.314,0.339-0.374c0.031-0.207-0.028-0.439-0.181-0.703l-2.172-3.807l0.318-1.161l0.994-0.565l1.159,0.317
				l7.549,13.219l-0.314,1.159l-0.994,0.571l-1.162-0.315l-2.173-3.802c-0.294-0.514-0.48-0.572-0.482-0.572
				c-0.006,0-0.013,0-0.02,0c-0.173,0-0.33,0.055-0.508,0.156l-23.618,13.489c-0.163,0.092-0.36,0.23-0.405,0.389l0,0
				c0,0-0.034,0.197,0.249,0.687l2.17,3.811l-0.321,1.161l-0.993,0.561L71.482,481.941z"/>
			<path fill="#FFFFFF" d="M73.214,480.959l-0.993,0.56L64.672,468.3l0.999-0.571l2.168,3.802c0.256,0.443,0.571,0.743,0.944,0.89
				c0.379,0.148,0.787,0.098,1.23-0.153l23.615-13.49c0.443-0.251,0.693-0.576,0.757-0.979c0.059-0.398-0.029-0.821-0.285-1.263
				l-2.169-3.802l0.994-0.565l7.549,13.219l-0.994,0.571l-2.173-3.802c-0.315-0.551-0.644-0.871-0.989-0.969
				c-0.349-0.089-0.738-0.015-1.18,0.236l-23.62,13.49c-0.438,0.246-0.703,0.546-0.802,0.895c-0.093,0.344,0.015,0.797,0.33,1.343
				L73.214,480.959z"/>
			<path fill="#FFFFFF" d="M58.474,458.498l-2.43-5.514l0.117-0.878l15.962-19.716l-17.85,7.875
				c-0.167,0.073-0.379,0.192-0.436,0.338c-0.002,0.005-0.056,0.189,0.175,0.725l0.616,1.385l-0.434,1.124l-1.047,0.462
				l-1.121-0.435l-3.078-6.965l0.433-1.121l1.042-0.462l1.122,0.432l0.619,1.393c0.127,0.284,0.278,0.469,0.459,0.563
				c0.064,0.035,0.111,0.047,0.167,0.047c0.088,0,0.201-0.03,0.328-0.088l27.369-12.069l1.123,0.438l0.415,0.948l-0.004,0.029
				l0.023,0.004l0.039,0.103l-0.081,0.033l-0.096,0.707l-18.388,22.708l20.979-9.263c0.331-0.143,0.368-0.28,0.385-0.339
				c0.05-0.19,0.014-0.435-0.111-0.716l-0.611-1.39l0.431-1.119l1.043-0.467l1.125,0.433l3.073,6.964l-0.432,1.121l-1.052,0.468
				l-1.125-0.438l-0.609-1.397c-0.231-0.52-0.412-0.608-0.414-0.608c-0.036-0.015-0.07-0.021-0.111-0.021
				c-0.078,0-0.217,0.021-0.437,0.117l-24.915,10.992c-0.131,0.057-0.352,0.173-0.4,0.33c-0.007,0.021-0.077,0.253,0.226,0.938
				l0.521,1.18l-0.436,1.122l-1.052,0.462L58.474,458.498z"/>
			<path fill="#FFFFFF" d="M74.473,430.841l-0.152-0.349l-20.39,8.995c-0.457,0.202-0.752,0.467-0.885,0.807
				c-0.132,0.334-0.064,0.792,0.187,1.372l0.619,1.392l-1.047,0.462l-3.078-6.964l1.042-0.462l0.619,1.392
				c0.207,0.462,0.487,0.787,0.846,0.973c0.364,0.197,0.777,0.187,1.239-0.025l27.358-12.063l0.457,1.047l-0.039-0.103
				L61.17,452.111l0.158,0.349l23.512-10.381c0.467-0.202,0.752-0.497,0.861-0.89c0.103-0.388,0.054-0.821-0.153-1.288l-0.61-1.387
				l1.043-0.467l3.073,6.964l-1.052,0.467l-0.609-1.397c-0.256-0.575-0.556-0.934-0.885-1.062c-0.334-0.133-0.733-0.094-1.2,0.113
				l-24.914,10.991c-0.462,0.201-0.757,0.492-0.87,0.856c-0.118,0.364-0.03,0.875,0.26,1.534l0.521,1.18l-1.052,0.462l-2.43-5.513
				L74.473,430.841z"/>
			<path fill="#FFFFFF" d="M55.115,425.971c-1.692,0-3.357-0.201-4.948-0.598c-4.137-1.037-6.77-3.235-7.828-6.535
				c-0.269-0.812-0.375-1.798-0.321-3.007c0.068-1.365,0.005-1.677-0.002-1.707c-0.074-0.228-0.21-0.443-0.413-0.646
				c-0.203-0.206-0.439-0.341-0.726-0.417l-0.182-1.573l7.682-4.087l1.084,0.247l0.713,0.968l-0.211,1.21
				c-2.175,1.46-3.649,2.874-4.38,4.204c-0.685,1.257-0.806,2.522-0.369,3.866c0.487,1.506,2.071,2.588,4.71,3.218
				c0.824,0.197,1.757,0.297,2.771,0.297c0,0,0,0,0,0c2.413,0,5.384-0.563,8.832-1.676c3.267-1.053,6.223-2.626,8.788-4.679
				c2.37-1.895,3.159-3.933,2.412-6.232c-0.366-1.146-0.887-1.984-1.55-2.495c-0.42-0.324-0.897-0.481-1.459-0.481
				c-0.229,0-0.476,0.026-0.734,0.079l-6.07,1.964c-0.496,0.162-0.82,0.382-0.961,0.654c-0.132,0.264-0.121,0.657,0.04,1.158
				l0.353,1.095l-0.547,1.07l-1.097,0.354l-1.071-0.548l-2.941-9.088l0.549-1.071l1.102-0.354l1.07,0.55l0.29,0.905
				c0.171,0.52,0.42,0.699,0.593,0.788c0.145,0.074,0.3,0.11,0.471,0.11c0.154,0,0.326-0.029,0.513-0.088l9.046-2.924l1.102,0.943
				c-0.036,0.228-0.059,0.424-0.059,0.589c0,0.12,0.023,0.249,0.071,0.395c0.058,0.182,0.136,0.349,0.241,0.515
				c0.023,0.037,0.107,0.142,0.351,0.267c1,0.631,1.753,1.332,2.307,2.124c0.546,0.77,0.979,1.668,1.323,2.741
				c1.273,3.925,0.458,7.416-2.424,10.374c-2.742,2.813-6.148,4.891-10.125,6.176C60.344,425.517,57.654,425.971,55.115,425.971z"/>
			<path fill="#FFFFFF" d="M44.405,418.159c0.585,1.809,2.356,3.073,5.321,3.781c2.965,0.709,6.988,0.241,12.063-1.396
				c3.388-1.092,6.403-2.7,9.058-4.824c2.651-2.12,3.551-4.505,2.69-7.16c-0.423-1.323-1.043-2.292-1.84-2.906
				c-0.792-0.61-1.75-0.792-2.882-0.561l-6.162,1.987c-0.723,0.236-1.205,0.59-1.455,1.072c-0.241,0.482-0.246,1.087-0.015,1.809
				l0.354,1.097l-1.097,0.354l-2.941-9.088l1.102-0.354l0.29,0.905c0.201,0.61,0.536,1.038,1.013,1.284
				c0.482,0.246,1.018,0.27,1.628,0.078l9.053-2.926c-0.044,0.28-0.069,0.521-0.069,0.723s0.034,0.418,0.113,0.659
				c0.079,0.246,0.187,0.477,0.33,0.703c0.137,0.217,0.364,0.408,0.683,0.571c0.836,0.531,1.505,1.151,1.997,1.854
				c0.502,0.708,0.9,1.544,1.21,2.513c1.175,3.624,0.433,6.796-2.223,9.521c-2.655,2.724-5.916,4.712-9.777,5.96
				c-4.475,1.446-8.631,1.692-12.476,0.733c-3.846-0.964-6.256-2.951-7.224-5.97c-0.241-0.728-0.329-1.628-0.281-2.71
				c0.054-1.087,0.039-1.751-0.039-1.992c-0.118-0.364-0.324-0.698-0.624-0.999c-0.295-0.3-0.664-0.521-1.111-0.639l7.682-4.087
				l0.713,0.968c-2.301,1.544-3.851,3.044-4.652,4.5C44.041,415.08,43.894,416.589,44.405,418.159z"/>
			<path fill="#FFFFFF" d="M31.205,370.112l-0.9-8.326l0.757-0.938l1.131-0.118l0.934,0.754l0.103,0.944
				c0.034,0.313,0.121,0.536,0.268,0.685c0.026,0.026,0.108,0.107,0.36,0.107c0.044,0,0.09-0.003,0.137-0.008l22.132-2.374
				c2.245-0.245,3.697-0.845,4.313-1.781c0.654-0.993,0.9-2.288,0.731-3.849c-0.179-1.687-0.869-3.02-2.111-4.077
				c-1.051-0.89-2.226-1.322-3.589-1.322c-0.235,0-0.474,0.013-0.718,0.039l-21.947,2.361c-0.189,0.019-0.426,0.065-0.531,0.192l0,0
				c0.001,0-0.103,0.169-0.042,0.729l0.123,1.132l-0.761,0.938l-1.131,0.112l-0.93-0.755l-0.733-6.781l0.757-0.938l1.131-0.118
				l0.934,0.754l0.123,1.136c0.03,0.308,0.117,0.525,0.267,0.675c0.03,0.03,0.114,0.112,0.371,0.112
				c0.043,0,0.087-0.002,0.133-0.007l21.938-2.355c0.41-0.044,0.81-0.066,1.198-0.066c2.247,0,4.169,0.743,5.714,2.208
				c1.775,1.679,2.804,3.721,3.058,6.068c0.264,2.445-0.195,4.698-1.366,6.696c-1.214,2.075-3.375,3.294-6.42,3.622l-22.141,2.375
				c-0.265,0.028-0.457,0.099-0.541,0.197h0c0.003,0-0.095,0.168-0.037,0.735l0.102,0.938l-0.756,0.938l-1.126,0.118L31.205,370.112
				z"/>
			<path fill="#FFFFFF" d="M62.016,355.117c-0.201-1.893-1.003-3.438-2.405-4.633c-1.407-1.19-3.054-1.682-4.948-1.481
				l-21.948,2.361c-0.507,0.049-0.865,0.217-1.096,0.497c-0.222,0.275-0.3,0.733-0.231,1.362l0.123,1.131l-1.131,0.113l-0.733-6.782
				l1.131-0.118l0.123,1.136c0.049,0.502,0.221,0.895,0.511,1.185c0.286,0.281,0.679,0.398,1.185,0.35l21.948-2.356
				c2.523-0.275,4.603,0.364,6.236,1.913c1.638,1.549,2.567,3.403,2.798,5.542c0.246,2.277-0.177,4.337-1.254,6.176
				c-1.077,1.84-3.005,2.907-5.778,3.206l-22.14,2.375c-0.507,0.054-0.871,0.222-1.102,0.497c-0.221,0.285-0.295,0.737-0.231,1.367
				l0.103,0.944l-1.126,0.118l-0.9-8.326l1.131-0.118l0.103,0.944c0.054,0.507,0.221,0.9,0.507,1.19
				c0.29,0.286,0.683,0.398,1.185,0.349l22.14-2.375c2.518-0.275,4.166-0.994,4.933-2.159
				C61.918,358.358,62.208,356.887,62.016,355.117z"/>
			<path fill="#FFFFFF" d="M28.46,340.317l-0.094-6.044l0.45-0.764l22.35-11.932l-19.48,0.318c-0.189,0.002-0.431,0.027-0.537,0.138
				c-0.007,0.007-0.13,0.16-0.117,0.739l0.02,1.533l-0.835,0.861l-1.151,0.02l-0.865-0.837l-0.123-7.647l0.835-0.864l1.151-0.02
				l0.865,0.836l0.025,1.529c0.003,0.312,0.073,0.548,0.207,0.709c0.038,0.046,0.118,0.146,0.445,0.146l29.904-0.482l0.864,0.835
				l0.02,1.151l-0.793,0.027l0.338,0.634l-25.738,13.737l22.899-0.368c0.346-0.007,0.431-0.119,0.463-0.161
				c0.138-0.175,0.199-0.408,0.196-0.727l-0.034-1.518l0.838-0.869l1.156-0.016l0.862,0.837l0.123,7.643l-0.835,0.864l-1.151,0.02
				l-0.865-0.837l-0.024-1.523c-0.009-0.585-0.143-0.739-0.145-0.741c-0.078-0.074-0.267-0.119-0.524-0.119l-27.216,0.438
				c-0.25,0.005-0.42,0.057-0.502,0.152c-0.012,0.015-0.162,0.217-0.146,0.957l0.02,1.298l-0.836,0.863l-1.156,0.02L28.46,340.317z"
				/>
			<path fill="#FFFFFF" d="M53.931,321.066l-0.01-0.384l-22.248,0.364c-0.512,0.005-0.885,0.137-1.136,0.398
				c-0.251,0.256-0.369,0.708-0.354,1.348l0.02,1.524l-1.151,0.02l-0.123-7.647l1.151-0.02l0.025,1.529
				c0.005,0.511,0.142,0.925,0.403,1.239c0.255,0.315,0.639,0.462,1.146,0.452l29.871-0.482l0.02,1.151l-0.005-0.103l-28.111,15.004
				l0.005,0.379l25.681-0.413c0.502-0.01,0.88-0.172,1.127-0.497c0.255-0.324,0.374-0.742,0.369-1.249l-0.034-1.529l1.156-0.015
				l0.123,7.642l-1.151,0.02l-0.024-1.524c-0.01-0.64-0.148-1.087-0.398-1.333c-0.261-0.251-0.645-0.369-1.151-0.364l-27.2,0.438
				c-0.507,0.01-0.885,0.157-1.136,0.452c-0.246,0.295-0.364,0.802-0.349,1.525l0.02,1.293l-1.156,0.02l-0.094-6.044L53.931,321.066
				z"/>
			<path fill="#FFFFFF" d="M60.962,308.578l-0.761-0.928l0.423-4.362c0.054-0.579-0.056-0.738-0.057-0.739
				c-0.081-0.1-0.271-0.166-0.529-0.191l-27.105-2.621c-0.059-0.006-0.115-0.009-0.169-0.009c-0.17,0-0.31,0.031-0.373,0.084
				c-0.013,0.011-0.153,0.144-0.218,0.729l-0.412,4.361l-0.932,0.766l-1.131-0.113l-0.761-0.928l1.47-15.182l0.923-0.765
				l1.126,0.103l0.77,0.929l-0.423,4.372c-0.03,0.307,0.012,0.541,0.126,0.717c0.031,0.047,0.112,0.171,0.465,0.209l27.099,2.62
				c0.045,0.004,0.089,0.007,0.131,0.007c0.245,0,0.319-0.077,0.359-0.119c0.147-0.15,0.236-0.381,0.269-0.695l0.417-4.353
				l0.928-0.766l1.126,0.108l0.766,0.928l-1.465,15.186l-0.932,0.765L60.962,308.578z"/>
			<path fill="#FFFFFF" d="M30.915,304.822l-1.131-0.113l1.47-15.182l1.126,0.103l-0.423,4.372c-0.049,0.507,0.04,0.925,0.261,1.264
				c0.221,0.339,0.585,0.536,1.087,0.59l27.107,2.621c0.512,0.049,0.9-0.073,1.185-0.369c0.28-0.285,0.448-0.688,0.502-1.195
				l0.418-4.362l1.126,0.108l-1.465,15.186l-1.131-0.113l0.423-4.362c0.059-0.634-0.02-1.092-0.251-1.367
				c-0.226-0.28-0.595-0.442-1.097-0.492l-27.107-2.621c-0.502-0.049-0.9,0.044-1.17,0.27c-0.28,0.226-0.448,0.659-0.517,1.288
				L30.915,304.822z"/>
			<path fill="#FFFFFF" d="M32.598,278.829l-0.663-1.001l1.618-8.026l1.004-0.665l1.126,0.231l0.662,1.004l-0.153,0.743
				c-0.061,0.309-0.023,0.455,0.004,0.477c0.181,0.143,0.519,0.219,0.964,0.222l19.811-0.723l-17.39-8.752
				c-0.591-0.306-0.942-0.37-1.134-0.37c-0.067,0-0.125,0.008-0.171,0.023c-0.216,0.072-0.332,0.432-0.391,0.721l-0.113,0.563
				l-1.005,0.665l-1.126-0.231l-0.662-1.001l1.357-6.718l1.001-0.665l1.122,0.226l0.666,0.999l-0.148,0.748
				c-0.063,0.303-0.003,0.604,0.181,0.93c0.114,0.204,0.453,0.61,1.469,1.092l26.631,13.315l0.453,0.929l-0.226,1.121l-0.797,0.682
				l-29.551,1.249c-0.239-0.01-0.384-0.015-0.523-0.015c-0.534,0-0.955,0.067-1.253,0.199c-0.155,0.07-0.353,0.212-0.447,0.663
				l-0.186,0.929l-1.005,0.666L32.598,278.829z"/>
			<path fill="#FFFFFF" d="M36.94,263.109l-1.126-0.231l1.357-6.718l1.122,0.226l-0.148,0.748c-0.104,0.497-0.015,1.003,0.275,1.515
				c0.286,0.511,0.9,0.993,1.845,1.441l26.615,13.308l-0.226,1.121l-29.551,1.249c-0.89-0.054-1.583,0.034-2.085,0.256
				c-0.497,0.226-0.807,0.649-0.935,1.268l-0.187,0.935l-1.126-0.231l1.618-8.026l1.126,0.231l-0.153,0.743
				c-0.123,0.624-0.02,1.062,0.32,1.323c0.334,0.265,0.826,0.393,1.475,0.398l22.386-0.816l0.074-0.379l-19.651-9.89
				c-0.816-0.423-1.47-0.556-1.957-0.393c-0.487,0.162-0.802,0.614-0.954,1.357L36.94,263.109z"/>
			<path fill="#FFFFFF" d="M69.114,257.567l-0.558-1.064l0.339-1.087c0.171-0.572,0.089-0.739,0.088-0.74
				c-0.055-0.104-0.225-0.207-0.462-0.277l-25.987-8.093c-0.128-0.04-0.245-0.06-0.342-0.06c-0.109,0-0.166,0.025-0.2,0.044
				c0,0-0.18,0.107-0.392,0.77l-0.296,0.961l-1.063,0.563l-1.102-0.339l-0.562-1.066l5.592-17.97l0.801-0.597l6.811-0.089
				l0.859,0.789l0.074,1.023l-0.689,0.897c-1.998,0.38-3.592,0.95-4.738,1.693c-1.089,0.708-1.79,1.605-2.143,2.745l-1.584,5.091
				c-0.094,0.295-0.101,0.535-0.023,0.736c0.02,0.049,0.068,0.173,0.41,0.281l10.438,3.252l1.38-4.458
				c0.302-0.964,0.301-1.713-0.003-2.227c-0.324-0.543-0.995-0.978-1.99-1.289l-1.087-0.338l-0.559-1.066l0.344-1.097l1.064-0.558
				l10.706,3.334l0.56,1.063l-0.339,1.097l-1.064,0.561l-0.728-0.226c-0.661-0.208-1.261-0.314-1.786-0.314
				c-0.375,0-0.717,0.054-1.018,0.161c-0.63,0.227-1.081,0.798-1.374,1.746l-1.386,4.457l12.81,3.986
				c0.113,0.036,0.211,0.053,0.294,0.053c0.087,0,0.152-0.019,0.218-0.063c0.168-0.114,0.298-0.317,0.392-0.616l1.47-4.716
				c0.508-1.649,0.482-3.137-0.081-4.545c-0.577-1.44-1.785-2.829-3.591-4.125l-0.166-1.225l0.644-0.797l1.125-0.179l6.477,4.205
				l0.349,0.966l-5.764,18.535l-1.066,0.559L69.114,257.567z"/>
			<path fill="#FFFFFF" d="M40.491,247.77l-1.102-0.339l5.592-17.97l6.811-0.089l0.074,1.023c-2.115,0.403-3.797,1.008-5.041,1.815
				c-1.249,0.811-2.08,1.873-2.493,3.206l-1.584,5.09c-0.153,0.482-0.153,0.91-0.005,1.294c0.148,0.379,0.462,0.634,0.949,0.787
				l11.252,3.506l1.633-5.272c0.379-1.21,0.349-2.179-0.084-2.911c-0.438-0.733-1.259-1.289-2.469-1.667l-1.087-0.339l0.344-1.097
				l10.706,3.334l-0.339,1.097l-0.728-0.226c-1.323-0.418-2.439-0.462-3.339-0.143c-0.89,0.32-1.529,1.087-1.903,2.297l-1.638,5.267
				l13.622,4.239c0.487,0.153,0.895,0.113,1.235-0.113c0.334-0.226,0.58-0.58,0.733-1.072l1.47-4.716
				c0.56-1.819,0.531-3.526-0.103-5.114c-0.64-1.598-1.933-3.099-3.885-4.5l0.644-0.797l6.477,4.205L70.469,257.1l-1.101-0.344
				l0.339-1.087c0.182-0.61,0.197-1.067,0.03-1.387c-0.167-0.315-0.492-0.556-0.974-0.699l-25.976-8.09
				c-0.482-0.148-0.885-0.128-1.21,0.054s-0.58,0.605-0.787,1.254L40.491,247.77z"/>
			<path fill="#FFFFFF" d="M77.59,231.157l-0.448-1.116l0.447-1.047c0.23-0.535,0.171-0.719,0.17-0.721
				c-0.044-0.112-0.207-0.234-0.447-0.337l-25.006-10.716c-0.211-0.088-0.351-0.107-0.431-0.107c-0.046,0-0.083,0.006-0.114,0.019
				c-0.024,0.01-0.193,0.106-0.415,0.619l-0.454,1.043l-1.112,0.443l-1.042-0.443l-0.449-1.118l4.268-9.964
				c1.223-2.847,2.833-4.823,4.785-5.873c1-0.533,2.084-0.803,3.228-0.803c1.163,0,2.409,0.281,3.703,0.835
				c2.539,1.088,4.238,2.675,5.053,4.715c0.655,1.624,0.873,3.243,0.649,4.825l14.161,0.275c0.458-0.031,0.688-0.146,0.778-0.213
				c0.184-0.129,0.307-0.285,0.394-0.492l0.456-1.055l1.115-0.444l1.047,0.448l0.447,1.118l-2.105,4.898l-0.798,0.514l-17.067-0.333
				l-1.02,2.385l11.799,5.06c0.126,0.054,0.246,0.083,0.34,0.083c0.062,0,0.113-0.012,0.164-0.039
				c0.181-0.096,0.332-0.285,0.456-0.573l0.441-1.038l1.113-0.451l1.052,0.443l0.452,1.119l-3.447,8.041l-1.117,0.447L77.59,231.157
				z M59.683,205.876c-0.594,0-1.165,0.1-1.696,0.296c-1.324,0.487-2.422,1.736-3.264,3.711l-0.822,1.919
				c-0.127,0.288-0.159,0.521-0.102,0.719c0.015,0.053,0.054,0.195,0.377,0.333l10.595,4.543l1.313-3.055
				c0.669-1.555,0.758-3.006,0.271-4.435c-0.467-1.363-1.706-2.487-3.683-3.34C61.6,206.109,60.595,205.876,59.683,205.876z"/>
			<path fill="#FFFFFF" d="M63.939,202.654c2.331,0.999,3.866,2.415,4.598,4.249c0.738,1.83,0.866,3.614,0.403,5.34l15.181,0.295
				c0.566-0.034,0.999-0.157,1.299-0.379c0.305-0.212,0.526-0.497,0.673-0.846l0.453-1.048l1.047,0.448l-2.105,4.898l-17.64-0.344
				l-1.579,3.693l12.58,5.395c0.467,0.197,0.88,0.201,1.234,0.015c0.359-0.192,0.639-0.521,0.841-0.989l0.443-1.042l1.052,0.443
				l-3.447,8.041l-1.047-0.448l0.447-1.047c0.251-0.585,0.31-1.042,0.177-1.372c-0.133-0.334-0.433-0.6-0.9-0.801l-25.007-10.716
				c-0.467-0.196-0.871-0.231-1.205-0.093c-0.329,0.123-0.619,0.487-0.87,1.067l-0.453,1.042l-1.042-0.443l4.268-9.964
				c1.151-2.68,2.621-4.499,4.406-5.459C59.542,201.631,61.607,201.656,63.939,202.654z M65.217,218.514l1.648-3.836
				c0.752-1.746,0.846-3.427,0.295-5.045c-0.551-1.608-1.938-2.892-4.151-3.846c-1.987-0.851-3.757-0.989-5.316-0.413
				c-1.549,0.57-2.808,1.962-3.752,4.175l-0.821,1.918c-0.206,0.467-0.251,0.895-0.138,1.289c0.108,0.388,0.398,0.683,0.861,0.88
				L65.217,218.514z"/>
			<path fill="#FFFFFF" d="M82.314,201.598l-0.546-0.956l0.221-1.185l1.035-0.67c1.501,0.361,2.858,0.545,4.031,0.545
				c1.165,0,2.17-0.181,2.99-0.537c1.639-0.716,2.923-1.89,3.817-3.49c0.93-1.677,1.14-3.136,0.64-4.458
				c-0.508-1.367-1.737-2.597-3.655-3.658c-0.512-0.286-1.085-0.424-1.753-0.424c-0.523,0-1.106,0.088-1.732,0.263
				c-1.523,0.434-3.386,1.459-5.532,3.047c-3.091,2.326-5.431,3.744-7.15,4.331c-0.604,0.206-1.244,0.31-1.901,0.31
				c-1.348,0-2.819-0.439-4.371-1.307c-1.845-1.018-3.186-2.766-3.983-5.193c-0.797-2.455-0.424-5.09,1.107-7.835
				c0.667-1.197,1.52-2.232,2.535-3.077c1.128-0.946,1.469-1.403,1.572-1.592c0.122-0.213,0.17-0.404,0.162-0.618
				c-0.002-0.13-0.048-0.376-0.336-0.794l1.039-1.263l7.185,3.128l0.504,0.886l-0.128,1.013l-0.932,0.739
				c-0.944-0.098-1.816-0.147-2.593-0.147c-1.461,0-2.623,0.173-3.452,0.516c-1.231,0.511-2.272,1.522-3.092,3.004
				c-1.026,1.838-1.245,3.347-0.649,4.487c0.665,1.293,1.567,2.242,2.762,2.906c0.701,0.39,1.377,0.587,2.012,0.587
				c0.287,0,0.573-0.041,0.851-0.12c0.706-0.197,2.361-1.039,6.27-3.938c2.651-2.104,5.105-3.392,7.274-3.811
				c0.606-0.117,1.214-0.176,1.808-0.176c1.589,0,3.153,0.423,4.649,1.257c2.165,1.199,3.696,3.051,4.55,5.504
				c0.857,2.485,0.48,5.198-1.119,8.065c-0.656,1.189-1.496,2.203-2.495,3.011c-1.021,0.806-1.444,1.355-1.621,1.674
				c-0.109,0.19-0.148,0.417-0.127,0.705c0.029,0.444,0.091,0.97,0.172,1.573l-1.132,0.913L82.314,201.598z"/>
			<path fill="#FFFFFF" d="M81.323,189.391c-3,2.258-5.306,3.659-6.919,4.21c-1.618,0.55-3.477,0.241-5.582-0.935
				c-1.667-0.92-2.862-2.498-3.59-4.716c-0.723-2.228-0.379-4.608,1.042-7.155c0.619-1.111,1.396-2.056,2.336-2.838
				c0.939-0.787,1.534-1.396,1.775-1.839c0.192-0.334,0.28-0.683,0.265-1.058c-0.005-0.364-0.167-0.782-0.486-1.244l7.185,3.128
				l-0.128,1.013c-2.887-0.3-5.041-0.157-6.457,0.428c-1.421,0.59-2.592,1.716-3.512,3.379c-1.175,2.105-1.401,3.87-0.659,5.292
				c0.733,1.426,1.766,2.513,3.103,3.256c1.22,0.678,2.395,0.861,3.511,0.541c1.127-0.315,3.305-1.672,6.541-4.072
				c2.586-2.051,4.898-3.266,6.929-3.659c2.041-0.393,3.993-0.064,5.881,0.989c1.997,1.106,3.379,2.793,4.161,5.041
				c0.777,2.253,0.428,4.707-1.058,7.372c-0.614,1.111-1.382,2.031-2.287,2.764c-0.915,0.723-1.519,1.362-1.83,1.923
				c-0.191,0.334-0.265,0.728-0.231,1.18c0.029,0.452,0.093,0.998,0.177,1.623l-8.886-3.216l0.221-1.185
				c3.206,0.772,5.729,0.757,7.559-0.039c1.824-0.797,3.231-2.085,4.22-3.855c1.047-1.888,1.284-3.61,0.693-5.173
				c-0.581-1.564-1.923-2.931-4.038-4.102c-1.111-0.619-2.484-0.693-4.126-0.236C85.489,186.676,83.556,187.739,81.323,189.391z"/>
			<path fill="#FFFFFF" d="M104.06,179.371l-0.21-1.185l2.513-3.595c0.339-0.478,0.316-0.675,0.316-0.677
				c-0.027-0.151-0.213-0.309-0.365-0.414L84.009,157.89c-0.264-0.188-0.421-0.208-0.476-0.208c-0.038,0.003-0.229,0.05-0.567,0.533
				l-2.513,3.597l-1.184,0.21l-0.944-0.659l-0.21-1.185l8.739-12.491l1.185-0.209l0.939,0.659l0.208,1.184l-2.513,3.59
				c-0.179,0.254-0.259,0.482-0.246,0.699c0.003,0.053,0.012,0.195,0.3,0.395l22.301,15.612c0.104,0.073,0.255,0.159,0.39,0.159
				c0.286-0.073,0.481-0.234,0.664-0.489l2.507-3.588l1.184-0.21l0.944,0.659l0.21,1.185l-8.739,12.486l-1.184,0.209L104.06,179.371
				z"/>
			<path fill="#FFFFFF" d="M79.755,161.325l-0.944-0.659l8.739-12.491l0.939,0.659l-2.513,3.59
				c-0.295,0.418-0.423,0.831-0.398,1.239c0.025,0.403,0.246,0.752,0.664,1.042l22.298,15.61c0.413,0.29,0.821,0.378,1.21,0.265
				c0.384-0.118,0.728-0.384,1.023-0.797l2.513-3.595l0.944,0.659l-8.739,12.486l-0.944-0.659l2.513-3.595
				c0.369-0.521,0.517-0.959,0.457-1.308c-0.064-0.359-0.3-0.679-0.718-0.969l-22.302-15.609c-0.408-0.29-0.802-0.408-1.151-0.345
				c-0.354,0.064-0.713,0.359-1.077,0.88L79.755,161.325z"/>
			<path fill="#FFFFFF" d="M121.917,155.263l-0.084-1.199l1.116-1.288c0.377-0.44,0.379-0.64,0.379-0.642
				c-0.008-0.114-0.13-0.285-0.329-0.46l-20.156-17.413c-0.384-0.331-0.638-0.527-0.8-0.643c-0.122,0.118-0.301,0.307-0.558,0.604
				c-1.263,1.461-1.516,2.361-1.506,2.86c0.012,0.445,0.301,1.682,2.105,4.904l-0.201,1.072l-0.895,0.738l-1.23-0.158l-4.362-6.034
				l0.045-1.054l11.823-13.676l1.055-0.188l6.477,3.58l0.33,1.162l-0.477,0.846l-1.03,0.382c-3.227-1.167-4.557-1.429-5.104-1.444
				c0,0,0,0-0.001,0c-0.457,0-1.224,0.293-2.431,1.688c-0.471,0.546-0.731,0.881-0.875,1.081c0.157,0.161,0.426,0.418,0.886,0.819
				l20.013,17.293c0.103,0.087,0.263,0.199,0.397,0.199c0.275-0.046,0.473-0.178,0.67-0.411l1.127-1.3l1.2-0.085l0.865,0.751
				l0.086,1.198l-6.467,7.485l-1.202,0.085L121.917,155.263z"/>
			<path fill="#FFFFFF" d="M129.808,147.889l-6.467,7.485l-0.865-0.753l1.116-1.288c0.413-0.482,0.61-0.905,0.585-1.259
				c-0.024-0.359-0.236-0.704-0.614-1.038L103.4,133.617c-0.772-0.664-1.244-0.988-1.422-0.978
				c-0.182,0.015-0.555,0.354-1.136,1.028c-1.161,1.343-1.731,2.488-1.712,3.432c0.025,0.944,0.762,2.71,2.213,5.302l-0.895,0.738
				l-4.362-6.034l11.823-13.676l6.477,3.58l-0.477,0.846c-2.68-0.969-4.47-1.47-5.37-1.495c-0.905-0.024-1.933,0.635-3.099,1.982
				c-0.826,0.959-1.234,1.524-1.219,1.711c0.01,0.177,0.452,0.635,1.313,1.387l20.016,17.296c0.389,0.329,0.777,0.462,1.175,0.384
				c0.403-0.074,0.767-0.3,1.097-0.689l1.121-1.293L129.808,147.889z"/>
			<path fill="#FFFFFF" d="M141.411,135.681l-0.782-0.836l0.037-1.199l1.239-1.171c0.425-0.403,0.442-0.593,0.442-0.595
				c0.001-0.117-0.097-0.295-0.278-0.489l-6.661-7.072l-16.032-7.678c-0.501-0.229-0.975-0.354-1.392-0.365
				c-0.001,0-0.002,0-0.003,0c-0.331,0-0.608,0.13-0.892,0.396l-0.272,0.257l-1.201-0.033l-0.792-0.836l0.034-1.204l6.093-5.744
				l1.201,0.034l0.792,0.836l-0.032,1.202l-0.831,0.787c-0.225,0.211-0.316,0.35-0.353,0.418c0.08,0.107,0.305,0.34,0.901,0.659
				l11.827,5.939l-5.079-12.222c-0.258-0.367-0.522-0.59-0.731-0.615c-0.002,0-0.004,0-0.007,0c-0.121,0-0.438,0.052-1.022,0.602
				l-0.272,0.258l-1.208-0.038l-0.782-0.841l0.04-1.198l5.385-5.075l1.2,0.034l0.792,0.836l-0.035,1.205l-0.418,0.393
				c-0.306,0.293-0.479,0.661-0.523,1.119c-0.055,0.536,0.063,1.205,0.351,1.994l5.939,14.784l7.454,7.91
				c0.23,0.243,0.368,0.243,0.414,0.243c0.229-0.021,0.442-0.132,0.66-0.342l1.251-1.177l1.2,0.035l0.792,0.836l-0.034,1.204
				l-7.205,6.787L141.411,135.681z"/>
			<path fill="#FFFFFF" d="M130.128,106.359c-0.428-0.64-0.895-0.994-1.382-1.052c-0.492-0.059-1.063,0.216-1.712,0.826
				l-0.275,0.261l-0.782-0.841l5.385-5.075l0.792,0.836l-0.418,0.393c-0.457,0.438-0.723,0.989-0.787,1.657
				c-0.069,0.674,0.069,1.461,0.398,2.366l6.009,14.96l7.564,8.026c0.349,0.369,0.718,0.536,1.121,0.507
				c0.408-0.039,0.797-0.226,1.161-0.576l1.244-1.17l0.792,0.836l-7.205,6.787l-0.782-0.836l1.239-1.171
				c0.462-0.438,0.698-0.831,0.708-1.19c0.005-0.359-0.162-0.723-0.507-1.092l-6.772-7.19l-16.175-7.746
				c-0.625-0.285-1.2-0.433-1.736-0.448c-0.536-0.02-1.037,0.192-1.5,0.625l-0.275,0.26l-0.792-0.836l6.093-5.744l0.792,0.836
				l-0.831,0.787c-0.555,0.522-0.747,0.964-0.58,1.328c0.167,0.364,0.605,0.738,1.313,1.116l13.347,6.703l0.31-0.29L130.128,106.359
				z"/>
			<path fill="#FFFFFF" d="M185.361,100.576c-1.563,0-3.253-0.397-5.022-1.18c-3.518-1.555-6.694-4.602-9.439-9.056
				c-2.673-4.349-3.984-8.461-3.898-12.224c0.08-3.912,1.62-6.816,4.576-8.629c1.522-0.938,3.142-1.415,4.813-1.415
				c1.674,0,3.427,0.48,5.212,1.428c3.444,1.826,6.436,4.778,8.893,8.774c2.804,4.561,4.137,8.777,3.961,12.534
				c-0.171,3.881-1.697,6.734-4.536,8.48C188.534,100.142,186.999,100.576,185.361,100.576z M175.502,71.343
				c-0.796,0-1.561,0.233-2.337,0.714c-1.551,0.952-2.198,2.631-1.98,5.134c0.239,2.671,1.67,6.155,4.252,10.354
				c2.779,4.513,5.349,7.469,7.638,8.787c1.248,0.729,2.385,1.098,3.385,1.098h0c0.716,0,1.36-0.183,1.969-0.559
				c1.563-0.955,2.254-2.563,2.115-4.916c-0.144-2.51-1.688-6.173-4.591-10.891c-2.335-3.784-4.674-6.584-6.952-8.322
				C177.783,71.813,176.605,71.343,175.502,71.343z"/>
			<path fill="#FFFFFF" d="M189.771,78.72c2.724,4.431,4.004,8.449,3.836,12.049c-0.158,3.6-1.539,6.201-4.131,7.795
				c-2.483,1.529-5.415,1.549-8.793,0.054c-3.383-1.495-6.398-4.406-9.059-8.724c-2.591-4.215-3.855-8.134-3.772-11.758
				c0.074-3.62,1.46-6.261,4.17-7.923c2.808-1.731,5.867-1.721,9.182,0.039C184.524,72.012,187.376,74.825,189.771,78.72z
				 M174.713,87.99c2.862,4.647,5.503,7.677,7.938,9.078c2.424,1.417,4.505,1.589,6.226,0.526c1.835-1.121,2.675-3.025,2.518-5.69
				c-0.153-2.66-1.721-6.418-4.716-11.286c-2.4-3.89-4.78-6.737-7.16-8.552c-2.385-1.815-4.652-2.061-6.801-0.733
				c-1.834,1.126-2.626,3.108-2.38,5.931C170.591,80.088,172.052,83.663,174.713,87.99z"/>
			<path fill="#FFFFFF" d="M202.475,90.365l-0.492-1.023l0.397-1.135l1.205-0.58c0.537-0.264,0.607-0.442,0.607-0.444
				c0.046-0.137-0.041-0.374-0.122-0.546l-11.82-24.53c-0.063-0.13-0.194-0.36-0.348-0.407c-0.018-0.001-0.037-0.001-0.056-0.001
				c-0.167,0-0.393,0.043-0.777,0.226l-1.101,0.525l-1.13-0.395l-0.497-1.018l0.395-1.139l17.985-8.665l0.978,0.172l5.05,5.178
				l0.021,1.166l-0.688,0.756l-1.15,0.101c-1.685-1.306-3.324-2.109-4.871-2.387c-0.47-0.087-0.933-0.131-1.378-0.131
				c-1.001,0-1.967,0.222-2.872,0.659l-4.796,2.312c-0.283,0.136-0.466,0.295-0.558,0.485c-0.019,0.041-0.083,0.177,0.072,0.503
				l4.92,10.215l4.884-2.354c0.925-0.446,1.491-0.946,1.683-1.486c0.183-0.537,0.052-1.283-0.393-2.208l-0.412-0.849l0.396-1.138
				l1.023-0.492l1.135,0.397l4.78,9.925l-0.397,1.135l-1.018,0.491l-1.135-0.396l-0.33-0.683c-0.574-1.192-1.208-1.974-1.884-2.326
				c-0.253-0.131-0.521-0.195-0.816-0.195c-0.41,0-0.879,0.127-1.393,0.377l-4.893,2.352l5.674,11.759
				c0.151,0.323,0.29,0.354,0.342,0.365c0.058,0.013,0.115,0.019,0.175,0.019c0.164,0,0.35-0.05,0.553-0.149l1.206-0.576
				l1.132,0.399l0.492,1.023l-0.397,1.135l-8.247,3.973L202.475,90.365z"/>
			<path fill="#FFFFFF" d="M210.997,85l0.492,1.023l-8.247,3.973l-0.492-1.023l1.205-0.58c0.571-0.281,0.915-0.581,1.038-0.92
				c0.118-0.349,0.064-0.743-0.153-1.2l-11.822-24.535c-0.222-0.457-0.512-0.743-0.866-0.851c-0.354-0.113-0.836-0.02-1.446,0.27
				l-1.102,0.526l-0.497-1.018L207.092,52l5.05,5.178l-0.688,0.757c-1.795-1.391-3.546-2.247-5.242-2.552
				c-1.702-0.315-3.295-0.113-4.77,0.6l-4.795,2.311c-0.462,0.222-0.777,0.516-0.954,0.88c-0.172,0.369-0.148,0.782,0.069,1.239
				l5.292,10.986l5.65-2.724c1.141-0.55,1.844-1.205,2.115-1.967c0.26-0.762,0.123-1.716-0.428-2.862l-0.413-0.851l1.023-0.492
				l4.78,9.925l-1.018,0.491l-0.33-0.683c-0.659-1.367-1.416-2.272-2.257-2.71c-0.846-0.438-1.835-0.384-2.975,0.172l-5.656,2.719
				l6.044,12.526c0.217,0.462,0.526,0.738,0.925,0.826c0.398,0.088,0.821,0.029,1.284-0.197L210.997,85z"/>
			<path fill="#FFFFFF" d="M253.186,69.486l-0.27-1.097l0.619-1.028l1.298-0.325c0.573-0.142,0.678-0.306,0.679-0.307
				c0.06-0.099,0.058-0.303-0.004-0.55l-6.535-26.425c-0.042-0.174-0.12-0.392-0.259-0.471c-0.011-0.006-0.067-0.038-0.231-0.038
				s-0.37,0.031-0.612,0.091l-1.191,0.295l-1.031-0.626l-0.265-1.102l0.623-1.024l10.991-2.719c1.32-0.328,2.575-0.495,3.728-0.495
				c1.725,0,3.282,0.372,4.629,1.104c2.268,1.245,3.738,3.176,4.374,5.741c0.758,3.081,0.348,5.718-1.219,7.84
				c-1.534,2.07-3.652,3.451-6.297,4.107l-4.905,1.216l2.81,11.361c0.089,0.347,0.219,0.407,0.274,0.434
				c0.092,0.041,0.211,0.064,0.345,0.064c0.116,0,0.243-0.017,0.378-0.051l1.296-0.325l1.032,0.619l0.275,1.101l-0.621,1.032
				l-8.877,2.199L253.186,69.486z M259.593,36.742c-0.814,0-1.741,0.127-2.755,0.377l-2.582,0.639
				c-0.3,0.072-0.505,0.188-0.631,0.355c-0.039,0.05-0.128,0.167-0.042,0.494l3.049,12.314l3.782-0.936
				c1.678-0.415,2.991-1.255,4.013-2.568c0.968-1.24,1.155-3.102,0.555-5.535c-0.556-2.23-1.472-3.744-2.721-4.496
				C261.551,36.959,260.654,36.742,259.593,36.742z"/>
			<path fill="#FFFFFF" d="M256.275,53.054l3.014,12.186c0.128,0.497,0.369,0.826,0.738,0.999c0.369,0.167,0.807,0.191,1.293,0.068
				l1.294-0.324l0.275,1.101l-8.877,2.199l-0.27-1.097l1.298-0.325c0.614-0.152,1.013-0.383,1.2-0.693
				c0.182-0.3,0.216-0.703,0.093-1.195l-6.535-26.423c-0.118-0.492-0.344-0.826-0.669-1.008c-0.324-0.187-0.816-0.192-1.465-0.03
				l-1.19,0.295l-0.265-1.102l10.991-2.719c3.108-0.772,5.685-0.59,7.746,0.531c2.06,1.131,3.374,2.857,3.954,5.198
				c0.698,2.833,0.339,5.213-1.077,7.131c-1.422,1.918-3.359,3.177-5.818,3.787L256.275,53.054z M260.617,50.812
				c1.849-0.457,3.344-1.412,4.48-2.872c1.141-1.461,1.377-3.551,0.709-6.261c-0.615-2.464-1.648-4.141-3.108-5.021
				c-1.456-0.88-3.477-1.003-6.064-0.364l-2.582,0.639c-0.492,0.118-0.861,0.344-1.106,0.669c-0.246,0.32-0.315,0.728-0.187,1.22
				l3.251,13.13L260.617,50.812z"/>
			<path fill="#FFFFFF" d="M290.906,62.667c-2.707,0-5.261-1.289-7.59-3.831c-2.604-2.841-4.291-6.906-5.01-12.083
				c-0.708-5.036-0.262-9.325,1.325-12.75c1.653-3.552,4.229-5.595,7.657-6.072c0.475-0.066,0.95-0.101,1.41-0.101
				c2.979,0,5.593,1.392,7.769,4.138c2.418,3.052,3.974,6.954,4.625,11.598c0.739,5.298,0.269,9.695-1.397,13.07
				c-1.724,3.481-4.269,5.481-7.563,5.945C291.721,62.639,291.309,62.667,290.906,62.667z M288.456,30.871
				c-0.245,0-0.496,0.018-0.753,0.054c-1.803,0.253-3.069,1.532-3.871,3.909c-0.856,2.564-0.942,6.327-0.253,11.181
				c0.723,5.226,1.887,8.965,3.458,11.116c1.319,1.803,2.677,2.679,4.153,2.679l0,0c0.18,0,0.361-0.013,0.544-0.039
				c1.815-0.256,3.098-1.45,3.921-3.651c0.875-2.351,0.929-6.328,0.16-11.82c-0.616-4.395-1.637-7.896-3.034-10.406
				C291.657,31.859,290.242,30.871,288.456,30.871z"/>
			<path fill="#FFFFFF" d="M300.25,43.685c0.718,5.149,0.28,9.339-1.318,12.575c-1.598,3.226-3.905,5.055-6.919,5.479
				c-2.887,0.403-5.577-0.757-8.07-3.477c-2.498-2.724-4.096-6.6-4.795-11.626c-0.688-4.898-0.27-8.985,1.254-12.275
				c1.529-3.285,3.86-5.149,7.003-5.587c3.261-0.457,6.064,0.782,8.395,3.723C298.13,35.438,299.616,39.166,300.25,43.685z
				 M282.738,46.135c0.747,5.399,1.957,9.231,3.614,11.498c1.662,2.272,3.497,3.265,5.503,2.98c2.134-0.3,3.664-1.697,4.598-4.195
				c0.93-2.498,0.998-6.58,0.206-12.236c-0.634-4.52-1.677-8.085-3.133-10.701c-1.45-2.621-3.427-3.748-5.94-3.398
				c-2.135,0.3-3.654,1.795-4.559,4.48C282.128,37.253,282.025,41.114,282.738,46.135z"/>
			<path fill="#FFFFFF" d="M309.571,59.887l-1.878-9.275l0.53-0.963l1.121-0.428l1.113,0.535c0.946,2.95,2.17,4.967,3.638,5.996
				c1.381,0.969,2.941,1.46,4.639,1.46c0.111,0,0.223-0.002,0.335-0.006c1.914-0.075,3.273-0.652,4.153-1.767
				c0.897-1.142,1.31-2.832,1.224-5.022c-0.036-1.039-0.583-2.034-1.67-3.044c-1.182-1.093-3.029-2.151-5.489-3.144
				c-3.597-1.442-6.024-2.709-7.417-3.874c-1.496-1.243-2.307-3.219-2.409-5.872c-0.077-2.126,0.726-4.18,2.385-6.106
				c1.68-1.947,4.127-2.996,7.275-3.118c0.139-0.005,0.274-0.007,0.409-0.007c1.228,0,2.419,0.199,3.542,0.59
				c1.264,0.433,1.867,0.524,2.15,0.524c0.272-0.01,0.468-0.07,0.656-0.191c0.084-0.057,0.287-0.242,0.501-0.717l1.617,0.235
				l1.063,7.761l-0.497,0.892l-0.939,0.418l-1.113-0.412c-1.173-2.467-2.34-4.137-3.468-4.961c-0.997-0.722-2.277-1.088-3.8-1.088
				c-0.129,0-0.259,0.002-0.391,0.007c-2.098,0.077-3.508,0.678-4.192,1.785c-0.754,1.226-1.097,2.49-1.048,3.861
				c0.045,1.176,0.401,2.059,1.09,2.696c0.759,0.711,2.99,1.822,6.632,3.303c3.192,1.178,5.576,2.61,7.056,4.245
				c1.526,1.67,2.348,3.713,2.438,6.07c0.092,2.474-0.698,4.742-2.348,6.741c-1.679,2.021-4.194,3.108-7.479,3.234
				c-0.139,0.005-0.273,0.007-0.407,0.007c-1.232,0-2.397-0.202-3.465-0.602c-0.935-0.343-1.674-0.518-2.191-0.518
				c-0.287,0.01-0.5,0.096-0.73,0.266c-0.379,0.266-0.789,0.587-1.262,0.975L309.571,59.887z"/>
			<path fill="#FFFFFF" d="M317.605,43.44c-3.482-1.396-5.877-2.641-7.19-3.738c-1.308-1.087-2.012-2.842-2.105-5.252
				c-0.069-1.908,0.654-3.748,2.179-5.518c1.524-1.766,3.748-2.71,6.664-2.823c1.268-0.044,2.483,0.133,3.639,0.536
				c1.161,0.398,1.997,0.59,2.503,0.57c0.384-0.015,0.728-0.123,1.042-0.324c0.3-0.202,0.58-0.56,0.816-1.082l1.063,7.761
				l-0.94,0.418c-1.244-2.617-2.488-4.372-3.733-5.282c-1.244-0.9-2.818-1.318-4.726-1.244c-2.414,0.088-4.042,0.826-4.883,2.188
				c-0.841,1.367-1.229,2.813-1.175,4.338c0.054,1.396,0.507,2.498,1.362,3.29c0.856,0.802,3.152,1.947,6.89,3.467
				c3.103,1.146,5.351,2.488,6.747,4.028c1.397,1.529,2.135,3.379,2.218,5.532c0.084,2.277-0.64,4.332-2.154,6.167
				c-1.524,1.835-3.806,2.808-6.855,2.926c-1.264,0.044-2.449-0.133-3.541-0.541c-1.097-0.403-1.962-0.595-2.602-0.57
				c-0.379,0.015-0.752,0.157-1.121,0.428c-0.379,0.266-0.806,0.6-1.298,1.003l-1.878-9.275l1.121-0.428
				c1.008,3.142,2.326,5.287,3.959,6.432c1.633,1.146,3.467,1.682,5.493,1.608c2.164-0.084,3.757-0.782,4.79-2.09
				c1.028-1.308,1.5-3.167,1.406-5.582c-0.044-1.264-0.693-2.474-1.942-3.634C322.1,45.589,320.187,44.482,317.605,43.44z"/>
			<path fill="#FFFFFF" d="M341.161,59.873l-0.795-0.903l0.073-1.146l0.899-0.794l1.712,0.103c0.077,0.004,0.149,0.007,0.219,0.007
				c0.402,0,0.516-0.083,0.517-0.083c0.104-0.091,0.162-0.273,0.174-0.522l1.688-26.574c0.029-0.509,0.033-0.828,0.027-1.025
				c-0.168-0.025-0.427-0.054-0.819-0.078c-0.277-0.018-0.536-0.027-0.783-0.027c-1.41,0-2.081,0.299-2.396,0.551
				c-0.348,0.28-1.157,1.259-2.646,4.645l-0.974,0.485l-1.122-0.265l-0.618-1.075l2.164-7.111l0.867-0.601l18.034,1.146l0.788,0.727
				l1.063,7.318l-0.729,0.965l-0.959,0.128l-0.925-0.59c-1.016-3.269-1.615-4.489-1.938-4.937c-0.209-0.292-0.847-0.794-2.797-0.908
				c-0.513-0.036-0.922-0.053-1.238-0.053c-0.062,0-0.115,0.001-0.163,0.002c-0.034,0.223-0.077,0.592-0.115,1.189l-1.672,26.378
				c-0.021,0.35,0.084,0.448,0.134,0.495c0.143,0.13,0.376,0.209,0.691,0.23l1.712,0.103l0.798,0.899l-0.068,1.155l-0.902,0.798
				L341.161,59.873z"/>
			<path fill="#FFFFFF" d="M351.115,59.654l-9.899-0.629l0.073-1.146l1.712,0.103c0.639,0.039,1.092-0.054,1.357-0.295
				c0.271-0.236,0.428-0.605,0.452-1.111l1.687-26.561c0.059-1.018,0.034-1.588-0.084-1.721c-0.113-0.137-0.619-0.231-1.505-0.285
				c-1.771-0.118-3.03,0.123-3.762,0.708c-0.738,0.595-1.697,2.247-2.892,4.967l-1.122-0.265l2.164-7.111l18.034,1.146l1.062,7.318
				l-0.959,0.128c-0.846-2.724-1.529-4.446-2.061-5.183c-0.521-0.728-1.672-1.156-3.437-1.259c-1.269-0.088-1.967-0.068-2.105,0.049
				c-0.133,0.123-0.236,0.747-0.31,1.883l-1.672,26.379c-0.03,0.507,0.103,0.89,0.403,1.17c0.3,0.275,0.708,0.423,1.215,0.457
				l1.717,0.103L351.115,59.654z"/>
			<path fill="#FFFFFF" d="M375.74,63.887c-0.728,0-1.501-0.068-2.301-0.202c-1.348-0.222-2.583-0.676-3.667-1.351
				c-1.109-0.688-1.765-0.902-2.119-0.96c-0.05-0.008-0.098-0.012-0.146-0.012c-0.165,0-0.351,0.046-0.553,0.137
				c-0.406,0.181-0.883,0.41-1.426,0.691l-1.242-0.758l0.033-9.457l0.719-0.837l1.19-0.188l0.978,0.749
				c0.333,3.084,1.124,5.309,2.351,6.61c1.231,1.308,2.769,2.124,4.57,2.424c0.482,0.08,0.944,0.121,1.372,0.121
				c1.242,0,2.236-0.33,3.039-1.009c1.116-0.939,1.862-2.509,2.219-4.667c0.169-1.029-0.166-2.119-1.025-3.329
				c-0.929-1.297-2.524-2.706-4.74-4.183c-3.226-2.126-5.35-3.854-6.488-5.281c-1.21-1.519-1.605-3.617-1.173-6.235
				c0.352-2.083,1.551-3.927,3.564-5.486c1.533-1.182,3.395-1.781,5.534-1.781c0.702,0,1.447,0.065,2.214,0.193
				c1.366,0.236,2.627,0.694,3.751,1.362c1.261,0.75,1.814,0.919,2.031,0.953c0.084,0.014,0.155,0.02,0.225,0.02
				c0.144,0,0.286-0.026,0.434-0.081c0.109-0.044,0.326-0.19,0.621-0.594l1.535,0.561l-0.541,7.809l-0.66,0.771l-0.999,0.227
				l-1.015-0.626c-0.657-2.672-1.46-4.543-2.385-5.562c-0.907-1.001-2.176-1.627-3.879-1.912c-0.554-0.092-1.074-0.138-1.546-0.138
				c-1.302,0-2.25,0.338-2.899,1.035c-0.98,1.038-1.588,2.235-1.81,3.563c-0.193,1.156-0.022,2.091,0.523,2.86
				c0.421,0.59,1.774,1.863,5.833,4.564c2.875,1.799,4.913,3.681,6.037,5.581c1.154,1.947,1.542,4.111,1.15,6.432
				c-0.409,2.456-1.638,4.517-3.652,6.124C379.863,63.26,377.958,63.887,375.74,63.887z"/>
			<path fill="#FFFFFF" d="M375.464,46.961c-3.133-2.065-5.228-3.767-6.295-5.104c-1.063-1.333-1.392-3.187-0.999-5.567
				c0.315-1.869,1.397-3.521,3.246-4.952c1.849-1.426,4.21-1.903,7.087-1.421c1.254,0.216,2.405,0.629,3.457,1.254
				c1.057,0.629,1.835,0.984,2.336,1.062c0.379,0.064,0.733,0.025,1.082-0.103c0.344-0.137,0.679-0.433,1.013-0.89l-0.541,7.809
				l-0.999,0.227c-0.693-2.818-1.549-4.795-2.582-5.931c-1.033-1.141-2.488-1.864-4.367-2.179c-2.375-0.393-4.116-0.015-5.208,1.156
				c-1.102,1.166-1.776,2.503-2.026,4.003c-0.231,1.377-0.005,2.543,0.669,3.492c0.679,0.954,2.695,2.543,6.054,4.78
				c2.798,1.751,4.721,3.521,5.778,5.306c1.052,1.776,1.401,3.733,1.043,5.857c-0.374,2.247-1.49,4.121-3.344,5.601
				c-1.859,1.495-4.289,1.987-7.288,1.485c-1.254-0.206-2.37-0.619-3.359-1.234c-0.993-0.615-1.8-0.973-2.429-1.077
				c-0.374-0.063-0.767,0-1.185,0.187s-0.91,0.423-1.47,0.713l0.034-9.457l1.19-0.187c0.355,3.28,1.21,5.651,2.577,7.102
				c1.362,1.446,3.049,2.346,5.05,2.68c2.129,0.354,3.826,0,5.1-1.077c1.274-1.072,2.115-2.793,2.508-5.178
				c0.206-1.249-0.182-2.567-1.17-3.959C379.432,49.971,377.78,48.505,375.464,46.961z"/>
			<path fill="#FFFFFF" d="M429.022,78.966l-0.482-1.101l0.418-1.072l1.098-0.484l0.713,0.275c0.269,0.107,0.433,0.129,0.524,0.129
				c0.099,0,0.121-0.023,0.133-0.035c0.07-0.07,0.303-0.376,0.394-1.365l1.085-7.896l-6.506-2.545l-3.947,5.525
				c-0.533,0.797-0.829,1.524-0.84,2.08c-0.007,0.257,0.038,0.545,0.666,0.788l0.535,0.206l0.484,1.107l-0.428,1.077l-1.1,0.478
				l-6.551-2.562l-0.48-1.107l0.428-1.072l1.1-0.477l0.526,0.206c0.156,0.062,0.302,0.091,0.448,0.091
				c0.125,0,0.25-0.021,0.381-0.066c0.278-0.093,0.566-0.385,0.836-0.847l17.511-24.483l0.732-0.355l3.044,0.148l0.802,0.965
				l-4.209,30.648c-0.035,0.754,0.111,1.153,0.201,1.317c0.139,0.254,0.346,0.431,0.634,0.544l0.538,0.212l0.479,1.103l-0.423,1.072
				l-1.101,0.48L429.022,78.966z M433.487,64.579l1.639-11.896l-7.012,9.798L433.487,64.579z"/>
			<path fill="#FFFFFF" d="M433.838,66.868l-7.746-3.03l-4.333,6.064c-0.649,0.969-0.984,1.824-0.998,2.557
				c-0.02,0.747,0.383,1.279,1.21,1.598l0.536,0.206l-0.428,1.077l-6.551-2.562l0.428-1.072l0.526,0.206
				c0.472,0.187,0.944,0.197,1.411,0.039c0.472-0.157,0.91-0.56,1.298-1.224l17.468-24.417l3.044,0.148l-4.209,30.648
				c-0.04,0.797,0.063,1.416,0.3,1.844c0.236,0.433,0.6,0.742,1.067,0.925l0.536,0.212l-0.423,1.072l-7.642-2.985l0.418-1.072
				l0.713,0.275c0.703,0.28,1.23,0.241,1.569-0.103c0.334-0.339,0.55-0.969,0.634-1.884L433.838,66.868z M436.4,49.666l-0.137-0.034
				l-9.477,13.244l7.396,2.887L436.4,49.666z"/>
			<path fill="#FFFFFF" d="M457.661,92.477l0.349-0.714l-0.72,0l0.022-29.192l-10.484,20.372c-0.161,0.309-0.104,0.436-0.079,0.49
				c0.087,0.194,0.266,0.358,0.548,0.505l1.354,0.696l0.367,1.147l-0.526,1.018l-1.145,0.366l-6.786-3.491l-0.367-1.147l0.526-1.018
				l1.143-0.367l1.356,0.693c0.399,0.208,0.604,0.23,0.673,0.23c0.184-0.05,0.321-0.264,0.411-0.434l12.443-24.175
				c0.077-0.152,0.159-0.368,0.101-0.518c-0.004-0.01-0.097-0.235-0.77-0.579l-1.154-0.597l-0.364-1.147l0.531-1.023l1.145-0.364
				l5.369,2.769l0.461,0.756l-0.014,25.33l8.912-17.315c0.117-0.225,0.164-0.424,0.128-0.539c-0.019-0.055-0.17-0.233-0.59-0.449
				l-1.359-0.698l-0.367-1.146l0.526-1.023l1.145-0.367l6.786,3.491l0.367,1.146l-0.525,1.018l-1.143,0.367l-1.357-0.693
				c-0.218-0.111-0.415-0.167-0.584-0.167c-0.046,0-0.091,0.004-0.135,0.013c-0.055,0.012-0.196,0.041-0.363,0.362l-13.665,26.547
				l-1.142,0.369L457.661,92.477z"/>
			<path fill="#FFFFFF" d="M461.2,84.769l0.335,0.177l10.185-19.789c0.231-0.443,0.29-0.846,0.182-1.185
				c-0.113-0.344-0.447-0.659-1.013-0.949l-1.358-0.698l0.526-1.023l6.787,3.491l-0.526,1.018l-1.357-0.693
				c-0.453-0.231-0.88-0.31-1.274-0.231c-0.403,0.084-0.713,0.349-0.949,0.802L459.071,92.24l-1.023-0.521l0.093,0.044l0.025-31.867
				l-0.344-0.172l-11.749,22.829c-0.236,0.453-0.265,0.861-0.098,1.23c0.167,0.374,0.477,0.673,0.93,0.909l1.357,0.698l-0.526,1.018
				l-6.786-3.491l0.526-1.018l1.357,0.693c0.565,0.295,1.018,0.389,1.357,0.28c0.349-0.113,0.629-0.393,0.866-0.846l12.447-24.181
				c0.231-0.453,0.275-0.861,0.137-1.215c-0.137-0.355-0.531-0.699-1.175-1.028l-1.151-0.595l0.531-1.023l5.37,2.769L461.2,84.769z"
				/>
			<path fill="#FFFFFF" d="M480.197,103.896c-2.58,0-5.251-0.891-7.938-2.647l-6.786-4.425l-0.249-1.175l0.629-0.969l1.181-0.248
				l1.042,0.684c0.361,0.233,0.538,0.245,0.57,0.245c0.129-0.03,0.278-0.174,0.422-0.397l14.864-22.781
				c0.137-0.215,0.205-0.411,0.183-0.528v0c-0.001,0-0.068-0.191-0.539-0.497l-0.953-0.627l-0.245-1.175l0.629-0.964l1.177-0.248
				l7.166,4.672c3.482,2.275,5.56,5.27,6.173,8.901c0.614,3.6-0.605,7.777-3.627,12.414c-3.281,5.028-6.754,8.14-10.32,9.249
				C482.469,103.723,481.333,103.896,480.197,103.896z M488.264,74.567c-0.154,0-0.255,0.033-0.372,0.211l-14.855,22.766
				c-0.154,0.236-0.124,0.361-0.075,0.478c0.109,0.251,0.362,0.512,0.743,0.761c1.443,0.941,2.989,1.419,4.595,1.419
				c0.754,0,1.539-0.104,2.336-0.311c2.502-0.655,5.394-3.467,8.594-8.358c2.857-4.389,4.228-7.91,4.072-10.465
				c-0.151-2.5-1.305-4.419-3.526-5.87c-0.812-0.521-1.265-0.619-1.462-0.63l-0.049-0.852V74.567z"/>
			<path fill="#FFFFFF" d="M484.644,72.647c0.27-0.423,0.374-0.811,0.305-1.16c-0.079-0.349-0.379-0.698-0.91-1.043l-0.949-0.624
				l0.629-0.964l7.166,4.672c3.29,2.149,5.223,4.923,5.798,8.331c0.581,3.403-0.59,7.342-3.501,11.808
				c-3.187,4.884-6.477,7.849-9.86,8.901c-3.379,1.047-6.919,0.374-10.598-2.031l-6.786-4.426l0.629-0.969l1.042,0.684
				c0.502,0.324,0.919,0.442,1.254,0.359c0.339-0.084,0.645-0.334,0.92-0.762L484.644,72.647z M489.941,91.998
				c2.975-4.569,4.377-8.228,4.209-10.982c-0.167-2.759-1.47-4.937-3.91-6.53c-0.742-0.477-1.372-0.738-1.878-0.767
				c-0.512-0.029-0.9,0.167-1.18,0.59l-14.857,22.77c-0.28,0.428-0.324,0.846-0.148,1.269c0.182,0.418,0.536,0.802,1.063,1.146
				c2.336,1.524,4.873,1.928,7.608,1.22C483.577,100,486.611,97.088,489.941,91.998z"/>
			<path fill="#FFFFFF" d="M513.546,133.578l-0.002-1.205l0.812-0.811l1.202-0.001l1.215,1.21c0.417,0.415,0.617,0.426,0.619,0.426
				c0.113,0,0.283-0.106,0.464-0.291l18.795-18.908c0.364-0.366,0.579-0.605,0.705-0.756c-0.109-0.131-0.285-0.327-0.569-0.611
				c-1.38-1.357-2.257-1.671-2.749-1.694c-0.001,0-0.003,0-0.004,0c-0.63,0-1.961,0.306-5.05,1.75l-1.052-0.274l-0.674-0.94
				l0.243-1.218l6.314-3.919l1.048,0.12l12.859,12.781l0.114,1.065l-4.018,6.202l-1.185,0.246l-0.807-0.536l-0.306-1.054
				c1.454-3.262,1.748-4.526,1.793-4.989c0.04-0.43-0.19-1.227-1.52-2.55c-0.511-0.508-0.831-0.794-1.023-0.954
				c-0.172,0.145-0.445,0.394-0.871,0.823l-18.663,18.771c-0.249,0.251-0.231,0.401-0.227,0.451c0.025,0.207,0.146,0.419,0.366,0.64
				l1.218,1.208l0.005,1.203l-0.805,0.81l-1.203,0.004L513.546,133.578z"/>
			<path fill="#FFFFFF" d="M521.193,139.972l-7.047-6.998l0.812-0.811l1.215,1.21c0.452,0.448,0.861,0.674,1.219,0.674
				c0.359,0,0.714-0.182,1.072-0.546l18.791-18.904c0.718-0.723,1.082-1.17,1.077-1.353c0-0.182-0.315-0.585-0.944-1.215
				c-1.269-1.249-2.366-1.898-3.31-1.942c-0.949-0.044-2.764,0.571-5.454,1.83l-0.674-0.94l6.314-3.919l12.86,12.781l-4.018,6.202
				l-0.807-0.536c1.161-2.602,1.776-4.357,1.864-5.252c0.084-0.904-0.502-1.977-1.766-3.236c-0.9-0.895-1.446-1.343-1.623-1.343
				c-0.182,0-0.674,0.408-1.476,1.215l-18.663,18.771c-0.359,0.364-0.512,0.748-0.467,1.146c0.049,0.408,0.251,0.787,0.61,1.146
				l1.22,1.21L521.193,139.972z"/>
			<path fill="#FFFFFF" d="M540.949,164.044l-12.304-15.004l0.118-1.197l0.895-0.733l1.194,0.116l0.723,0.875
				c0.307,0.382,0.509,0.477,0.562,0.482c0.002,0,0.004,0,0.006,0c0.078,0,0.235-0.027,0.498-0.241l21.026-17.235
				c0.22-0.184,0.305-0.337,0.309-0.419c0.003-0.036,0.004-0.248-0.415-0.763l-0.642-0.785l0.117-1.194l0.89-0.733l1.199,0.117
				l11.926,14.552l0.059,0.997l-3.659,5.724l-1.13,0.286l-0.896-0.497l-0.372-1.07c0.771-1.858,1.17-3.502,1.184-4.885
				c0.01-1.286-0.357-2.366-1.12-3.3l-3.378-4.12c-0.194-0.236-0.396-0.378-0.596-0.42c-0.007,0-0.015,0-0.022,0
				c-0.196,0-0.342,0.098-0.442,0.18l-8.461,6.932l2.964,3.616c0.642,0.785,1.269,1.196,1.863,1.223c0.001,0,0.003,0,0.004,0
				c0.693,0,1.399-0.321,2.165-0.953l0.89-0.725l1.195,0.12l0.728,0.89l-0.119,1.196l-8.69,7.121l-1.194-0.115l-0.732-0.885
				l0.113-1.198l0.59-0.487c0.929-0.759,1.494-1.523,1.685-2.272c0.156-0.645-0.074-1.338-0.704-2.11l-2.961-3.609l-10.368,8.5
				c-0.269,0.221-0.269,0.372-0.269,0.429c0.002,0.197,0.101,0.417,0.301,0.663l3.136,3.829c1.095,1.331,2.35,2.126,3.835,2.43
				c0.435,0.09,0.895,0.136,1.37,0.136c1.194,0,2.551-0.288,4.033-0.854l1.115,0.542l0.305,0.979l-0.472,1.032l-7.052,3.078
				L540.949,164.044z"/>
			<path fill="#FFFFFF" d="M553.577,128.602l0.89-0.733l11.925,14.552l-3.659,5.724l-0.895-0.497
				c0.821-1.977,1.234-3.718,1.249-5.203c0.01-1.486-0.428-2.764-1.313-3.846l-3.379-4.121c-0.319-0.388-0.678-0.629-1.077-0.713
				c-0.394-0.084-0.792,0.035-1.18,0.355l-9.118,7.47l3.502,4.274c0.806,0.984,1.633,1.495,2.483,1.534
				c0.856,0.034,1.776-0.344,2.749-1.146l0.885-0.723l0.728,0.89l-8.69,7.121l-0.733-0.885l0.59-0.487
				c1.082-0.885,1.731-1.79,1.967-2.719c0.222-0.92-0.068-1.874-0.87-2.857l-3.501-4.268l-11.026,9.039
				c-0.388,0.32-0.58,0.683-0.58,1.087c0.005,0.408,0.172,0.807,0.491,1.2l3.138,3.831c1.205,1.465,2.641,2.38,4.323,2.724
				c1.677,0.35,3.629,0.103,5.877-0.757l0.305,0.979l-7.052,3.078l-12.304-15.004l0.895-0.733l0.723,0.875
				c0.393,0.492,0.777,0.753,1.136,0.787c0.349,0.034,0.728-0.108,1.121-0.428l21.029-17.237c0.384-0.32,0.6-0.669,0.619-1.033
				c0.025-0.379-0.177-0.816-0.605-1.343L553.577,128.602z"/>
			<path fill="#FFFFFF" d="M556.786,187.037l-10.794-16.352l0.241-1.178l0.944-0.624l1.18,0.244l0.728,1.111
				c0.27,0.409,0.466,0.528,0.518,0.54c0.007,0,0.014,0,0.021,0c0.098,0,0.249-0.028,0.496-0.192l22.728-15.005
				c0.148-0.098,0.332-0.249,0.358-0.4c0.004-0.021,0.026-0.23-0.338-0.794l-0.668-1.004l0.235-1.177l0.939-0.629l1.183,0.238
				l5.035,7.623l-0.241,1.178l-0.943,0.624L577.232,161l-0.738-1.111c-0.172-0.264-0.349-0.419-0.544-0.48l-0.103-0.018
				c-0.104,0-0.239,0.053-0.393,0.154l-22.722,15c-0.292,0.195-0.307,0.341-0.312,0.396c-0.018,0.206,0.058,0.439,0.229,0.701
				l2.831,4.276c0.865,1.318,1.977,2.16,3.399,2.574c0.535,0.154,1.128,0.233,1.759,0.233c1.047,0,2.235-0.215,3.533-0.639
				l1.097,0.637l0.207,1.003l-0.535,0.968l-7.146,2.671L556.786,187.037z"/>
			<path fill="#FFFFFF" d="M552.264,173.836c-0.419,0.28-0.65,0.619-0.689,1.023c-0.034,0.408,0.084,0.821,0.364,1.249l2.833,4.279
				c0.974,1.485,2.267,2.454,3.871,2.921c1.598,0.462,3.531,0.325,5.793-0.413l0.207,1.003l-7.146,2.671l-10.794-16.352l0.944-0.624
				l0.728,1.111c0.349,0.531,0.703,0.831,1.052,0.905s0.742-0.034,1.165-0.315l22.725-15.004c0.423-0.281,0.664-0.6,0.728-0.964
				c0.064-0.374-0.093-0.831-0.462-1.402l-0.674-1.013l0.939-0.629l5.036,7.623l-0.944,0.624l-0.738-1.111
				c-0.275-0.423-0.605-0.698-0.998-0.821c-0.384-0.123-0.787-0.044-1.215,0.236L552.264,173.836z"/>
			<path fill="#FFFFFF" d="M569.719,210.734l-8.99-17.222l0.357-1.146l1.018-0.536l1.15,0.359l0.531,1.018
				c0.221,0.419,0.404,0.572,0.471,0.593c0.015,0,0.029,0.001,0.044,0.001c0.142,0,0.281-0.03,0.485-0.135l24.108-12.583
				c0.161-0.082,0.354-0.208,0.395-0.359c0.003-0.012,0.06-0.229-0.257-0.825l-0.472-0.91l0.355-1.143l1.018-0.541l1.153,0.357
				l8.729,16.721l-0.146,0.989l-4.766,4.864l-1.162,0.049l-0.771-0.664l-0.149-1.122c1.15-1.697,1.877-3.229,2.159-4.554
				c0.27-1.266,0.131-2.401-0.425-3.469l-2.474-4.734c-0.143-0.28-0.302-0.452-0.49-0.535c-0.054-0.024-0.096-0.033-0.142-0.033
				c-0.095,0-0.216,0.038-0.351,0.109l-9.687,5.053l2.155,4.135c0.471,0.894,1.003,1.423,1.579,1.57
				c0.151,0.039,0.313,0.058,0.48,0.058c0.526,0,1.149-0.186,1.853-0.554l1.013-0.531l1.148,0.359l0.535,1.023l-0.36,1.148
				l-9.979,5.208l-1.148-0.362l-0.531-1.023l0.359-1.145l0.674-0.354c1.067-0.557,1.772-1.184,2.098-1.866
				c0.293-0.611,0.212-1.333-0.247-2.21l-2.155-4.135l-11.904,6.211c-0.317,0.162-0.345,0.3-0.356,0.359
				c-0.04,0.204,0.012,0.44,0.152,0.705l2.295,4.404c0.784,1.504,1.883,2.572,3.265,3.173c0.901,0.392,1.979,0.59,3.201,0.59
				c0.692,0,1.447-0.063,2.243-0.188l0.978,0.754l0.104,1.018l-0.673,0.918l-7.544,1.569L569.719,210.734z"/>
			<path fill="#FFFFFF" d="M589.315,178.596l1.018-0.541l8.729,16.721l-4.765,4.864l-0.772-0.664
				c1.21-1.785,1.977-3.398,2.287-4.854s0.143-2.798-0.502-4.038l-2.474-4.736c-0.231-0.452-0.531-0.757-0.905-0.92
				c-0.369-0.167-0.782-0.133-1.229,0.103l-10.436,5.444l2.548,4.889c0.59,1.121,1.293,1.79,2.124,2.001
				c0.826,0.212,1.805,0.025,2.936-0.566l1.013-0.531l0.536,1.023l-9.979,5.208l-0.531-1.023l0.674-0.354
				c1.235-0.644,2.061-1.396,2.469-2.253c0.413-0.861,0.324-1.854-0.261-2.97l-2.547-4.888l-12.659,6.605
				c-0.453,0.231-0.718,0.546-0.797,0.949c-0.079,0.398,0,0.826,0.236,1.269l2.291,4.397c0.88,1.687,2.11,2.877,3.679,3.56
				c1.574,0.684,3.541,0.836,5.916,0.462l0.103,1.018l-7.544,1.569l-8.99-17.222l1.018-0.536l0.531,1.018
				c0.295,0.56,0.615,0.895,0.959,1.008c0.339,0.103,0.737,0.044,1.185-0.187l24.112-12.585c0.452-0.231,0.723-0.531,0.821-0.89
				c0.103-0.359-0.005-0.841-0.325-1.446L589.315,178.596z"/>
			<path fill="#FFFFFF" d="M587.545,235.057c-1.934,0-3.763-0.366-5.438-1.089c-2.433-1.059-4.133-2.773-5.056-5.097
				c-1.408-3.54-1.19-6.935,0.646-10.091c1.792-3.085,5.472-5.754,10.939-7.93c3.082-1.22,6.045-1.837,8.81-1.837
				c1.396,0,2.77,0.157,4.083,0.468c4.046,0.961,6.859,3.371,8.365,7.163c0.358,0.912,0.562,1.896,0.605,2.928
				c0.026,0.839,0.141,1.518,0.34,2.029c0.146,0.37,0.301,0.641,0.456,0.802c0.113,0.121,0.321,0.216,0.593,0.276l0.281,1.542
				l-7.155,4.677l-1.114-0.164l-0.776-0.92l0.111-1.207c1.843-1.505,3.11-3.038,3.765-4.556c0.629-1.443,0.607-2.965-0.063-4.656
				c-0.865-2.167-2.711-3.345-5.644-3.602c-0.448-0.037-0.908-0.056-1.376-0.056c-2.761,0-5.836,0.665-9.14,1.976
				c-4.224,1.682-7.336,3.581-9.249,5.645c-1.782,1.919-2.185,4.021-1.23,6.426c0.673,1.689,1.822,2.865,3.511,3.595
				c1.141,0.496,2.41,0.747,3.776,0.747c0.706,0,1.453-0.067,2.219-0.199l0.991,0.913l-0.113,1.274l-0.726,0.767
				C589.136,234.997,588.325,235.057,587.545,235.057z"/>
			<path fill="#FFFFFF" d="M577.842,228.557c-1.313-3.3-1.116-6.418,0.59-9.349c1.702-2.931,5.208-5.454,10.519-7.568
				c4.485-1.775,8.611-2.223,12.383-1.332c3.767,0.895,6.364,3.108,7.77,6.649c0.324,0.826,0.506,1.711,0.546,2.65
				c0.029,0.944,0.167,1.712,0.398,2.302c0.187,0.472,0.393,0.831,0.634,1.082c0.231,0.246,0.576,0.418,1.023,0.517l-7.155,4.677
				l-0.777-0.92c1.957-1.598,3.295-3.226,4.008-4.878c0.718-1.648,0.693-3.423-0.054-5.306c-0.989-2.479-3.108-3.851-6.359-4.136
				c-3.256-0.27-6.89,0.384-10.903,1.977c-4.362,1.736-7.549,3.688-9.56,5.857c-2.007,2.163-2.474,4.603-1.397,7.318
				c0.752,1.888,2.075,3.246,3.964,4.062c1.888,0.821,4.052,1.023,6.477,0.605l-0.113,1.274c-2.705,0.388-5.169,0.108-7.392-0.851
				C580.222,232.22,578.687,230.686,577.842,228.557z"/>
			<path fill="#FFFFFF" d="M597.802,261.525c-1.933,0-3.73-0.273-5.344-0.812c-3.688-1.234-6.018-3.486-6.927-6.693
				c-0.866-3.092-0.019-6.205,2.521-9.254c2.452-2.958,6.249-5.181,11.285-6.608c2.725-0.768,5.281-1.157,7.6-1.157
				c1.861,0,3.618,0.25,5.221,0.745c3.746,1.159,6.122,3.434,7.061,6.764c0.984,3.473,0.059,6.719-2.753,9.648
				c-2.688,2.814-6.345,4.888-10.868,6.164C602.779,261.12,600.156,261.525,597.802,261.525z M609.478,241.818
				c-2.348,0-5.271,0.491-8.689,1.459c-5.095,1.441-8.644,3.107-10.548,4.952c-1.79,1.732-2.435,3.375-1.972,5.021
				c0.503,1.768,1.863,2.878,4.158,3.394c0.646,0.144,1.412,0.217,2.272,0.217l0,0c2.386,0,5.565-0.559,9.45-1.662
				c4.274-1.201,7.604-2.687,9.9-4.416c2.107-1.582,2.844-3.364,2.251-5.447c-0.496-1.759-1.937-2.841-4.401-3.311
				C611.176,241.888,610.362,241.818,609.478,241.818z"/>
			<path fill="#FFFFFF" d="M605.367,259.504c-5.002,1.416-9.221,1.544-12.639,0.403c-3.423-1.146-5.547-3.187-6.378-6.118
				c-0.787-2.808-0.01-5.636,2.356-8.478c2.36-2.847,5.985-4.952,10.863-6.334c4.765-1.343,8.877-1.485,12.339-0.418
				c3.467,1.072,5.631,3.128,6.492,6.182c0.9,3.172,0.049,6.123-2.548,8.828C613.255,256.288,609.758,258.265,605.367,259.504z
				 M600.557,242.459c-5.252,1.485-8.887,3.202-10.908,5.159c-2.016,1.952-2.749,3.905-2.198,5.862
				c0.59,2.075,2.184,3.408,4.79,3.993c2.602,0.58,6.649,0.103,12.142-1.456c4.391-1.234,7.789-2.754,10.179-4.554
				c2.391-1.795,3.251-3.919,2.558-6.359c-0.586-2.075-2.277-3.384-5.061-3.914C609.267,240.659,605.435,241.077,600.557,242.459z"
				/>
			<path fill="#FFFFFF" d="M593.906,291.853l-1.407-8.065l0.691-0.984l1.126-0.197l0.983,0.689l0.167,0.939
				c0.103,0.582,0.252,0.693,0.258,0.697c0.067,0.046,0.186,0.057,0.272,0.057c0.086,0,0.178-0.009,0.276-0.027l18.922-3.279
				l-22.621-1.33l-0.788-0.701l-0.197-1.116l0.517-0.936l19.956-8.134l-17.939,3.116c-0.342,0.058-0.412,0.188-0.436,0.23
				c-0.067,0.122-0.145,0.325-0.072,0.732l0.098,0.569l-0.695,0.983l-1.126,0.192l-0.98-0.693l-0.979-5.631l0.694-0.984l1.127-0.192
				l0.982,0.699l0.093,0.56c0.102,0.558,0.246,0.686,0.247,0.687c0.068,0.047,0.167,0.069,0.299,0.069
				c0.085,0,0.175-0.009,0.271-0.025l26.785-4.651c0.273-0.046,0.474-0.129,0.553-0.228c0.006-0.01,0.059-0.194-0.012-0.612
				l-0.121-0.681l0.691-0.987l1.131-0.196l0.983,0.693l0.905,5.242l-0.518,0.932l-20.885,8.488l22.643,1.517l0.781,0.703l1.047,6
				l-0.691,0.984l-1.132,0.197l-0.985-0.696l-0.127-0.752c-0.053-0.297-0.16-0.524-0.317-0.667
				c-0.039-0.034-0.117-0.083-0.289-0.083c-0.063,0-0.131,0.007-0.201,0.019l-26.799,4.651c-0.345,0.058-0.415,0.186-0.441,0.234
				c-0.1,0.183-0.124,0.426-0.071,0.721l0.133,0.761l-0.695,0.984l-1.126,0.192L593.906,291.853z"/>
			<path fill="#FFFFFF" d="M596.942,288.815c-0.497,0.084-0.846,0.305-1.042,0.664c-0.192,0.354-0.251,0.782-0.162,1.279
				l0.132,0.757l-1.126,0.192l-1.407-8.065l1.126-0.197l0.167,0.939c0.108,0.62,0.305,1.033,0.605,1.244
				c0.29,0.201,0.683,0.26,1.185,0.172l24.55-4.254l-0.069-0.379l-28.277-1.662l-0.197-1.116l25.602-10.436l-0.064-0.374
				l-23.989,4.166c-0.497,0.084-0.846,0.31-1.038,0.664c-0.197,0.359-0.251,0.777-0.162,1.284l0.098,0.566l-1.126,0.192
				l-0.979-5.631l1.127-0.192l0.093,0.56c0.113,0.625,0.31,1.047,0.605,1.249c0.295,0.206,0.689,0.265,1.19,0.182l26.792-4.652
				c0.502-0.084,0.856-0.265,1.072-0.536c0.206-0.28,0.26-0.703,0.162-1.283l-0.123-0.689l1.131-0.196l0.905,5.242l-23.512,9.556
				l0.064,0.379l25.47,1.706l1.047,6l-1.132,0.197l-0.127-0.752c-0.089-0.497-0.286-0.885-0.586-1.156
				c-0.305-0.266-0.713-0.359-1.21-0.27L596.942,288.815z"/>
			<path fill="#FFFFFF" d="M596.004,319.11l-0.575-8.169l0.791-0.908l1.156-0.079l0.906,0.792l0.063,0.949
				c0.045,0.586,0.187,0.731,0.188,0.733c0.067,0.059,0.216,0.093,0.414,0.093l0.132-0.005l19.142-1.329l-22.369-3.622l-0.713-0.78
				l-0.079-1.136l0.61-0.875l20.684-6.043l-18.151,1.265c-0.349,0.027-0.428,0.142-0.462,0.191
				c-0.119,0.172-0.166,0.406-0.143,0.714l0.036,0.579l-0.791,0.901l-1.15,0.079l-0.906-0.79l-0.398-5.71l0.795-0.908l1.155-0.074
				l0.902,0.797l0.034,0.565c0.041,0.582,0.181,0.707,0.182,0.708c0.078,0.068,0.226,0.103,0.423,0.103l0.133-0.005l27.121-1.888
				c0.398-0.027,0.526-0.131,0.556-0.163c0.023-0.026,0.097-0.202,0.066-0.607l-0.055-0.702l0.793-0.915l1.156-0.074l0.903,0.79
				l0.369,5.335l-0.611,0.875l-21.617,6.269l22.346,3.815l0.705,0.779l0.422,6.064l-0.787,0.907l-1.151,0.084l-0.91-0.788
				l-0.054-0.757c-0.023-0.308-0.104-0.542-0.241-0.691c-0.033-0.036-0.113-0.124-0.372-0.124l-27.245,1.891
				c-0.229,0.019-0.387,0.083-0.461,0.19c-0.12,0.174-0.168,0.409-0.146,0.719l0.049,0.76l-0.79,0.903l-1.146,0.079L596.004,319.11z
				"/>
			<path fill="#FFFFFF" d="M599.347,316.399c-0.502,0.04-0.876,0.227-1.102,0.556c-0.231,0.334-0.329,0.752-0.295,1.259l0.049,0.757
				l-1.146,0.079l-0.575-8.169l1.156-0.079l0.064,0.949c0.049,0.635,0.206,1.077,0.472,1.313c0.27,0.236,0.659,0.334,1.166,0.3
				l24.854-1.726l-0.025-0.383l-27.977-4.53l-0.079-1.136l26.547-7.756l-0.029-0.379l-24.284,1.692
				c-0.507,0.039-0.87,0.221-1.101,0.555c-0.231,0.334-0.33,0.752-0.291,1.264l0.035,0.566l-1.151,0.079l-0.398-5.71l1.155-0.074
				l0.035,0.565c0.044,0.635,0.201,1.067,0.477,1.303c0.27,0.236,0.659,0.334,1.166,0.3l27.122-1.888
				c0.507-0.034,0.88-0.177,1.116-0.428c0.236-0.256,0.339-0.674,0.295-1.254l-0.054-0.704l1.156-0.074l0.369,5.335l-24.353,7.062
				l0.03,0.383l25.145,4.294l0.422,6.064l-1.151,0.084l-0.054-0.757c-0.039-0.507-0.192-0.91-0.462-1.205
				c-0.275-0.3-0.669-0.433-1.17-0.393L599.347,316.399z"/>
			<path fill="#FFFFFF" d="M627.55,347.817l-0.824-0.879l0.039-1.146c0.009-0.308-0.048-0.54-0.172-0.707
				c-0.029-0.039-0.12-0.159-0.472-0.169l-22.062-0.698c-2.789-0.092-4.992-1.128-6.549-3.078c-1.528-1.909-2.267-4.071-2.191-6.425
				c0.08-2.455,0.847-4.617,2.278-6.426c1.421-1.792,3.578-2.7,6.412-2.7c0.146,0,0.293,0.003,0.443,0.008
				c0,0,22.262,0.703,22.266,0.703c0.22,0,0.433-0.022,0.537-0.119l0,0c-0.001,0,0.129-0.14,0.147-0.725l0.034-0.958l0.875-0.82
				l1.156,0.034l0.824,0.877l-0.271,8.38l-0.875,0.822l-1.15-0.034l-0.824-0.877l0.03-0.954c0.009-0.317-0.046-0.552-0.169-0.714
				c-0.039-0.053-0.123-0.166-0.48-0.18l-22.247-0.698c-0.181-0.006-0.355-0.009-0.526-0.009c-1.974,0-3.317,0.394-3.994,1.169
				c-0.784,0.892-1.204,2.134-1.252,3.694c-0.062,1.685,0.438,3.094,1.525,4.312c1.073,1.198,2.41,1.809,4.085,1.865
				c0,0,22.077,0.693,22.083,0.693c0.29,0,0.45-0.041,0.529-0.113h-0.001c0,0,0.134-0.146,0.156-0.731l0.034-1.134l0.876-0.824
				l1.151,0.035l0.823,0.876l-0.216,6.859l-0.875,0.823L627.55,347.817z"/>
			<path fill="#FFFFFF" d="M597.685,335.165c-0.069,1.898,0.516,3.531,1.741,4.903c1.229,1.372,2.793,2.085,4.691,2.149
				l22.067,0.693c0.507,0.02,0.89-0.098,1.151-0.339c0.26-0.251,0.403-0.688,0.427-1.323l0.035-1.141l1.151,0.035l-0.216,6.86
				l-1.156-0.034l0.039-1.146c0.015-0.507-0.098-0.92-0.339-1.244c-0.246-0.324-0.625-0.497-1.131-0.511l-22.057-0.698
				c-2.538-0.084-4.51-1.003-5.912-2.759c-1.406-1.756-2.075-3.713-2.006-5.867c0.074-2.277,0.772-4.254,2.095-5.926
				c1.323-1.667,3.374-2.459,6.162-2.37l22.253,0.703c0.507,0.015,0.89-0.098,1.156-0.345c0.26-0.251,0.398-0.688,0.418-1.322
				l0.034-0.954l1.156,0.034l-0.27,8.38l-1.151-0.034l0.03-0.954c0.015-0.512-0.094-0.93-0.339-1.254
				c-0.246-0.329-0.62-0.497-1.127-0.517l-22.253-0.698c-2.543-0.084-4.269,0.398-5.188,1.451
				C598.226,331.983,597.739,333.395,597.685,335.165z"/>
			<path fill="#FFFFFF" d="M623.763,378.92l-0.729-0.955l0.201-1.505c0.042-0.304,0.009-0.538-0.101-0.724
				c-0.022-0.038-0.099-0.165-0.442-0.208l-29.637-3.98l-0.729-0.961l0.145-1.025l0.014-0.103l0.063,0.009l0.479-0.588l27.532-9.769
				l-22.738-3.051c-0.06-0.008-0.115-0.013-0.168-0.013c-0.191,0-0.272,0.054-0.327,0.105c-0.148,0.139-0.24,0.36-0.279,0.663
				l-0.202,1.509l-0.957,0.73l-1.126-0.152l-0.729-0.955l1.003-7.515l0.957-0.73l1.132,0.153l0.729,0.959l-0.206,1.5
				c-0.077,0.567,0.028,0.721,0.029,0.722c0.081,0.109,0.268,0.18,0.516,0.211l26.992,3.625c0.063,0.008,0.128,0.013,0.189,0.013
				c0.233,0,0.312-0.067,0.337-0.089c0.014-0.012,0.188-0.184,0.287-0.909l0.173-1.281l0.96-0.729l1.126,0.157l0.726,0.955
				l-0.802,5.96l-0.559,0.688l-23.884,8.481l19.321,2.595c0.073,0.01,0.149,0.015,0.221,0.015c0.156,0,0.271-0.026,0.343-0.08
				c0,0.001,0,0.001,0,0.001c-0.002,0,0.146-0.139,0.216-0.688l0.202-1.511l0.957-0.73l1.127,0.152l0.729,0.956l-1.009,7.515
				l-0.957,0.729L623.763,378.92z"/>
			<path fill="#FFFFFF" d="M600.921,370.219l-0.049,0.374l22.076,2.965c0.507,0.064,0.895-0.01,1.185-0.226
				c0.281-0.216,0.472-0.639,0.551-1.264l0.202-1.505l1.126,0.153l-1.008,7.514l-1.126-0.153l0.201-1.505
				c0.069-0.497-0.005-0.92-0.212-1.269c-0.206-0.344-0.565-0.555-1.067-0.619l-29.63-3.979l0.158-1.126l-0.015,0.103l30.048-10.662
				l0.049-0.384l-25.474-3.418c-0.502-0.069-0.9,0.039-1.195,0.32c-0.295,0.275-0.472,0.669-0.536,1.17l-0.201,1.505l-1.126-0.153
				l1.003-7.514l1.131,0.153l-0.206,1.5c-0.084,0.624-0.02,1.082,0.206,1.367c0.211,0.285,0.571,0.462,1.077,0.526l26.984,3.624
				c0.506,0.064,0.904-0.025,1.195-0.276c0.285-0.251,0.477-0.728,0.575-1.436l0.172-1.284l1.126,0.157l-0.801,5.96L600.921,370.219
				z"/>
			<path fill="#FFFFFF" d="M617.827,404.749l-0.634-1.025l1.018-4.259c0.1-0.402,0.035-0.614-0.021-0.738
				c-0.02-0.042-0.079-0.171-0.424-0.253l-26.477-6.373c-0.102-0.025-0.186-0.037-0.259-0.037c-0.124,0-0.186,0.034-0.232,0.07
				c-0.171,0.13-0.286,0.34-0.363,0.648l-1.017,4.246l-1.026,0.629l-1.101-0.265l-0.628-1.026l3.56-14.788l1.023-0.628l1.098,0.26
				l0.631,1.026l-1.023,4.254c-0.135,0.562-0.045,0.729-0.044,0.73c0.032,0.053,0.128,0.173,0.504,0.267l26.461,6.37
				c0.126,0.03,0.239,0.046,0.335,0.046c0.142,0,0.197-0.034,0.216-0.046c0.003-0.002,0.165-0.108,0.301-0.681l1.024-4.253
				l1.022-0.628l1.103,0.261l0.632,1.026l-3.562,14.793l-1.021,0.629L617.827,404.749z"/>
			<path fill="#FFFFFF" d="M621.576,389.123l1.102,0.261l-3.561,14.793l-1.096-0.256l1.018-4.259
				c0.123-0.497,0.094-0.919-0.074-1.288c-0.172-0.369-0.507-0.61-1.003-0.728l-26.473-6.373c-0.492-0.123-0.895-0.059-1.215,0.192
				c-0.324,0.246-0.541,0.619-0.664,1.111l-1.018,4.254l-1.101-0.265l3.56-14.788l1.097,0.26l-1.023,4.254
				c-0.148,0.615-0.128,1.077,0.063,1.382c0.182,0.305,0.526,0.516,1.018,0.639l26.468,6.373c0.497,0.118,0.89,0.084,1.195-0.103
				c0.31-0.192,0.536-0.59,0.683-1.21L621.576,389.123z"/>
			<path fill="#FFFFFF" d="M600.968,434.537l-0.732-0.856l0.021-1.205l0.879-0.835c0.239,0.008,0.476,0.012,0.707,0.012
				c2.063,0,3.785-0.324,5.118-0.962c1.418-0.677,2.401-1.838,3.008-3.55c0.785-2.205,0.171-4.306-1.875-6.424
				c-2.164-2.244-5.249-4.085-9.17-5.474c-3.58-1.272-6.688-1.917-9.241-1.917c-0.494,0-0.976,0.024-1.431,0.072
				c-2.604,0.271-4.29,1.589-5.154,4.027c-0.604,1.708-0.513,3.35,0.277,5.017c0.804,1.702,2.198,3.169,4.145,4.359l0.146,1.339
				l-0.92,0.885l-1.053,0.101c-2.417-1.566-4.203-3.536-5.311-5.855c-1.136-2.395-1.285-4.804-0.444-7.162
				c1.266-3.596,3.663-6.011,7.123-7.175c1.246-0.422,2.658-0.636,4.197-0.636c2.634,0,5.748,0.628,9.257,1.868
				c4.702,1.669,8.27,4.178,10.604,7.455c2.412,3.38,2.944,7.047,1.58,10.898c-0.337,0.938-0.835,1.813-1.481,2.604
				c-0.523,0.64-0.883,1.227-1.067,1.744c-0.135,0.376-0.197,0.683-0.188,0.913c0.007,0.168,0.096,0.365,0.263,0.587l-0.798,1.354
				L600.968,434.537z"/>
			<path fill="#FFFFFF" d="M580.739,416.393c1.18-3.349,3.378-5.572,6.594-6.654c3.211-1.087,7.515-0.674,12.899,1.229
				c4.544,1.613,7.948,3.993,10.195,7.146c2.252,3.157,2.744,6.526,1.47,10.121c-0.3,0.836-0.743,1.623-1.338,2.351
				c-0.6,0.733-0.998,1.402-1.21,1.997c-0.172,0.482-0.251,0.89-0.236,1.234c0.015,0.344,0.158,0.698,0.433,1.063l-8.459-1.185
				l0.02-1.205c2.522,0.084,4.598-0.256,6.221-1.033c1.618-0.772,2.764-2.115,3.442-4.033c0.895-2.513,0.202-4.952-2.065-7.298
				c-2.267-2.351-5.43-4.244-9.497-5.685c-4.431-1.574-8.109-2.198-11.045-1.888c-2.936,0.305-4.893,1.839-5.867,4.588
				c-0.678,1.918-0.571,3.807,0.31,5.665c0.88,1.864,2.37,3.437,4.47,4.721l-0.92,0.885c-2.292-1.485-3.964-3.325-5.006-5.508
				C580.114,420.721,579.971,418.547,580.739,416.393z"/>
			<path fill="#FFFFFF" d="M570.171,450.643c-0.16-0.018-0.369-0.033-0.562-0.033c-0.332,0-0.598,0.046-0.79,0.135
				c-0.272,0.125-0.46,0.313-0.594,0.593l-0.246,0.517l-1.133,0.401l-1.022-0.486l-0.403-1.132l3.516-7.421l1.13-0.405l1.028,0.482
				l0.408,1.132l-0.324,0.688c-0.176,0.364-0.195,0.593-0.141,0.655c0.065,0.074,0.356,0.329,1.354,0.488l7.835,1.647l2.99-6.31
				l-5.249-4.344c-0.774-0.6-1.47-0.939-2.045-0.993l-0.105-0.006c-0.143,0-0.439,0-0.729,0.613l-0.247,0.52l-1.132,0.403
				l-1.018-0.482l-0.404-1.133l3.014-6.349l1.132-0.404l1.018,0.481l0.405,1.133l-0.245,0.518c-0.135,0.278-0.162,0.54-0.087,0.831
				c0.069,0.27,0.352,0.588,0.795,0.895l23.222,19.203l0.302,0.76l-0.374,3.029l-1.019,0.728L570.171,450.643z M594.763,451.151
				l-9.299-7.695l-2.474,5.226L594.763,451.151z"/>
			<path fill="#FFFFFF" d="M580.709,448.875l3.56-7.514l-5.759-4.765c-0.925-0.718-1.76-1.116-2.508-1.185
				c-0.738-0.074-1.303,0.29-1.682,1.091l-0.246,0.517l-1.018-0.482l3.014-6.349l1.018,0.482l-0.246,0.517
				c-0.221,0.457-0.265,0.925-0.142,1.407c0.123,0.477,0.502,0.944,1.136,1.382l23.163,19.16l-0.374,3.029l-30.279-6.354
				c-0.807-0.103-1.426-0.049-1.883,0.163c-0.453,0.206-0.787,0.541-1.004,0.998l-0.246,0.516l-1.023-0.486l3.516-7.421l1.028,0.482
				l-0.324,0.688c-0.33,0.684-0.33,1.215-0.01,1.579s0.939,0.62,1.859,0.767L580.709,448.875z M597.655,452.627l0.064-0.133
				l-12.555-10.391l-3.403,7.19L597.655,452.627z"/>
			<path fill="#FFFFFF" d="M573.879,487.949l-0.516-1.095l0.333-0.91l0.953-0.543c2.204,0.405,3.811,0.611,4.774,0.611
				c0.198,0,0.367-0.009,0.507-0.028c0.6-0.089,1.353-0.824,2.11-2.068c0.375-0.616,0.577-0.989,0.687-1.21
				c-0.18-0.133-0.487-0.342-1.009-0.662l-22.615-13.743c-0.141-0.085-0.268-0.129-0.373-0.129c-0.043,0-0.086,0.008-0.131,0.023
				c-0.179,0.065-0.359,0.236-0.521,0.501l-0.89,1.464l-1.168,0.285l-0.968-0.588l-0.285-1.168l5.139-8.458l1.169-0.285l0.969,0.59
				l0.282,1.171l-0.896,1.461c-0.25,0.42-0.274,0.644-0.263,0.693c0.039,0.152,0.237,0.304,0.397,0.402l22.78,13.841
				c0.433,0.263,0.713,0.415,0.891,0.502c0.101-0.137,0.248-0.354,0.453-0.693c1.002-1.646,1.102-2.575,1.009-3.063
				c-0.09-0.439-0.587-1.621-2.896-4.49l0.021-1.092l0.763-0.875l1.237-0.047l5.287,5.213l0.13,1.047l-9.384,15.438l-1.009,0.36
				L573.879,487.949z"/>
			<path fill="#FFFFFF" d="M555.495,469.131l5.139-8.458l0.968,0.59l-0.895,1.461c-0.329,0.551-0.448,0.993-0.364,1.338
				c0.089,0.354,0.344,0.659,0.777,0.925l22.785,13.844c0.865,0.526,1.386,0.772,1.559,0.728c0.177-0.044,0.492-0.443,0.954-1.205
				c0.925-1.52,1.293-2.734,1.116-3.664c-0.187-0.925-1.205-2.548-3.069-4.864l0.762-0.875l5.287,5.213l-9.383,15.437l-6.969-2.454
				l0.334-0.91c2.808,0.517,4.657,0.713,5.552,0.59c0.89-0.133,1.795-0.949,2.72-2.469c0.659-1.082,0.969-1.712,0.92-1.883
				c-0.039-0.177-0.546-0.556-1.524-1.156l-22.618-13.745c-0.433-0.261-0.84-0.315-1.224-0.182
				c-0.379,0.138-0.704,0.428-0.969,0.861l-0.89,1.466L555.495,469.131z"/>
			<path fill="#FFFFFF" d="M562.517,513.367l-0.165-1.191l2.636-3.482c0.186-0.248,0.275-0.473,0.271-0.683
				c-0.001-0.052-0.004-0.193-0.288-0.409l-21.683-16.424c-0.154-0.113-0.296-0.175-0.412-0.175
				c-0.266,0.059-0.454,0.205-0.638,0.452l-2.647,3.483l-1.189,0.163l-0.915-0.692l-0.165-1.191l9.183-12.122l1.191-0.164
				l0.914,0.692l0.165,1.19l-2.632,3.482c-0.358,0.468-0.344,0.662-0.343,0.664c0.017,0.109,0.147,0.271,0.354,0.428l21.688,16.42
				c0.19,0.143,0.368,0.226,0.483,0.226c0.04-0.003,0.229-0.049,0.573-0.504l2.629-3.477l1.19-0.167l0.92,0.692l0.166,1.193
				l-9.181,12.123l-1.19,0.164L562.517,513.367z"/>
			<path fill="#FFFFFF" d="M572.206,500.566l0.92,0.693l-9.181,12.123l-0.915-0.693l2.636-3.482
				c0.305-0.408,0.452-0.811,0.443-1.215c-0.01-0.408-0.222-0.762-0.624-1.067L543.802,490.5c-0.408-0.3-0.807-0.408-1.205-0.315
				c-0.388,0.103-0.738,0.354-1.042,0.762l-2.641,3.477l-0.915-0.693l9.182-12.122l0.914,0.693l-2.631,3.482
				c-0.389,0.507-0.556,0.939-0.507,1.293c0.054,0.349,0.28,0.684,0.683,0.989l21.688,16.42c0.408,0.305,0.787,0.438,1.141,0.389
				c0.354-0.044,0.723-0.325,1.107-0.831L572.206,500.566z"/>
			<path fill="#FFFFFF" d="M542.699,534.804c-0.894,0-1.845-0.11-2.826-0.329c-3.802-0.848-7.474-2.903-10.914-6.11
				c-3.92-3.647-6.332-7.36-7.169-11.037c-0.863-3.799-0.147-6.959,2.126-9.394c1.746-1.872,4.09-2.821,6.965-2.821
				c0.714,0,1.473,0.059,2.255,0.176c3.81,0.568,7.683,2.666,11.515,6.234c3.729,3.467,6.091,7.086,7.021,10.755
				c0.96,3.794,0.249,7.006-2.114,9.546C547.716,533.801,545.409,534.804,542.699,534.804z M529.105,508.635
				c-1.314,0-2.332,0.405-3.111,1.237c-1.251,1.348-1.493,3.088-0.739,5.317c0.799,2.38,3.266,5.505,7.332,9.29
				c3.261,3.034,6.266,5.117,8.931,6.191c0.933,0.373,1.804,0.563,2.585,0.563c0.001,0,0.001,0,0.001,0
				c1.261,0,2.322-0.482,3.246-1.475c1.239-1.336,1.417-3.13,0.543-5.483c-0.949-2.529-3.258-5.515-6.859-8.869
				c-3.863-3.601-7.132-5.772-9.715-6.454C530.514,508.742,529.77,508.635,529.105,508.635z"/>
			<path fill="#FFFFFF" d="M529.539,527.742c-3.812-3.546-6.118-7.081-6.92-10.603c-0.801-3.526-0.162-6.398,1.918-8.625
				c1.992-2.135,4.814-2.931,8.473-2.385s7.342,2.553,11.06,6.015c3.629,3.374,5.886,6.826,6.777,10.342
				c0.89,3.516,0.251,6.432-1.913,8.758c-2.247,2.415-5.208,3.216-8.877,2.4C536.389,532.827,532.888,530.865,529.539,527.742z
				 M541.612,514.784c-3.993-3.723-7.357-5.936-10.077-6.654c-2.724-0.713-4.775-0.32-6.162,1.161
				c-1.47,1.583-1.78,3.639-0.924,6.171c0.851,2.533,3.373,5.744,7.559,9.639c3.349,3.118,6.408,5.237,9.191,6.359
				c2.783,1.111,5.041,0.738,6.772-1.122c1.465-1.578,1.707-3.698,0.718-6.359C547.691,521.319,545.335,518.251,541.612,514.784z"/>
			<path fill="#FFFFFF" d="M517.051,560.673l-0.757-0.865l0.081-1.2l1.146-0.999c0.23-0.202,0.361-0.402,0.399-0.612
				c0.009-0.052,0.036-0.207-0.188-0.46l-19.67-22.497l0.081-1.199l0.866-0.758l0.522,0.595l0.267-0.671l27.142,10.765
				l-15.079-17.249c-0.224-0.261-0.367-0.261-0.422-0.261c-0.214,0.01-0.431,0.114-0.665,0.318l-1.144,1.001l-1.201-0.08
				l-0.757-0.866l0.081-1.2l5.733-5.011l1.199,0.08l0.758,0.865l-0.081,1.202l-1.151,1.003c-0.426,0.374-0.457,0.565-0.458,0.567
				c-0.009,0.131,0.082,0.305,0.256,0.5l17.904,20.491c0.164,0.189,0.311,0.284,0.437,0.284c0.027,0,0.278-0.014,0.823-0.494
				l0.977-0.854l1.202,0.082l0.752,0.866l-0.083,1.198l-4.539,3.969l-0.873,0.149l-23.556-9.347l12.818,14.673
				c0.169,0.192,0.336,0.309,0.457,0.316c0.001,0,0.203-0.004,0.637-0.38l1.136-0.998l1.198,0.075l0.762,0.86l-0.077,1.203
				l-5.733,5.017L517.051,560.673z"/>
			<path fill="#FFFFFF" d="M504.866,538.203l-0.28,0.251l14.645,16.765c0.334,0.379,0.683,0.58,1.037,0.605
				c0.354,0.025,0.777-0.172,1.254-0.585l1.141-1.003l0.762,0.861l-5.734,5.016l-0.757-0.865l1.146-0.999
				c0.383-0.334,0.605-0.703,0.678-1.101c0.069-0.398-0.054-0.797-0.388-1.175l-19.667-22.494l0.866-0.757l-0.084,0.074
				l29.635,11.754l0.29-0.246l-16.908-19.342c-0.334-0.389-0.703-0.565-1.106-0.551c-0.408,0.02-0.797,0.192-1.18,0.526
				l-1.146,1.003l-0.757-0.866l5.734-5.011l0.757,0.866l-1.151,1.003c-0.477,0.418-0.728,0.807-0.748,1.161
				c-0.025,0.364,0.133,0.733,0.467,1.111l17.901,20.487c0.334,0.384,0.693,0.576,1.077,0.576c0.383,0,0.846-0.231,1.386-0.708
				l0.974-0.851l0.752,0.866l-4.539,3.969L504.866,538.203z"/>
			<path fill="#FFFFFF" d="M490.879,570.548l-0.071-1.018l0.556-0.861l1.156-0.266c2.347,1.427,4.234,2.187,5.611,2.257
				c0.081,0.004,0.164,0.006,0.248,0.006c1.253,0,2.549-0.467,3.851-1.39c1.736-1.232,2.563-2.471,2.528-3.782
				c-0.04-1.419-0.452-2.694-1.227-3.792c-0.682-0.957-1.463-1.499-2.388-1.653c-0.191-0.034-0.438-0.05-0.74-0.05
				c-1.309,0-3.531,0.308-6.606,0.916c-1.907,0.429-3.656,0.648-5.178,0.648c-1.114,0-2.135-0.117-3.034-0.35
				c-2.197-0.57-4.002-1.833-5.363-3.754c-1.434-2.027-2.014-4.357-1.726-6.926c0.292-2.606,1.802-4.89,4.485-6.786
				c1.112-0.796,2.313-1.344,3.565-1.626c1.273-0.29,1.889-0.595,2.18-0.8c0.173-0.123,0.311-0.318,0.404-0.573
				c0.169-0.429,0.334-0.932,0.518-1.519l1.417-0.343l6.629,6.718l0.078,1.104l-0.718,0.969l-1.219,0.154
				c-2.393-1.938-4.513-2.949-6.301-3.002l-0.262-0.004c-1.689,0-3.268,0.511-4.691,1.516c-1.561,1.11-2.381,2.333-2.506,3.737
				c-0.128,1.438,0.449,3.075,1.717,4.868c0.6,0.84,1.632,1.391,3.066,1.635c0.539,0.093,1.148,0.141,1.813,0.141
				c1.268,0,2.781-0.172,4.501-0.51c2.921-0.591,5.278-0.89,7.003-0.89c0.48,0,0.922,0.022,1.314,0.068
				c1.937,0.226,3.694,1.437,5.224,3.6c1.222,1.722,1.676,3.876,1.35,6.403c-0.343,2.558-1.819,4.775-4.39,6.595
				c-1.112,0.79-2.334,1.354-3.632,1.675c-1.464,0.357-1.969,0.645-2.118,0.751c-0.189,0.132-0.32,0.291-0.399,0.479
				c-0.043,0.099-0.122,0.36-0.034,0.89l-1.482,0.695L490.879,570.548z"/>
			<path fill="#FFFFFF" d="M493.339,557.047c3.674-0.742,6.354-1.008,8.055-0.811c1.692,0.197,3.236,1.279,4.627,3.246
				c1.107,1.559,1.5,3.487,1.2,5.803c-0.31,2.317-1.647,4.318-4.037,6.01c-1.038,0.737-2.154,1.249-3.344,1.544
				c-1.19,0.29-1.997,0.59-2.41,0.885c-0.31,0.216-0.546,0.502-0.688,0.841c-0.148,0.339-0.182,0.797-0.089,1.357l-5.13-5.931
				l0.556-0.861c2.474,1.505,4.475,2.301,6.009,2.38c1.534,0.074,3.079-0.438,4.633-1.539c1.967-1.397,2.931-2.892,2.887-4.5
				c-0.044-1.593-0.507-3.02-1.382-4.259c-0.811-1.141-1.79-1.81-2.941-2.002c-1.146-0.201-3.698,0.089-7.652,0.871
				c-3.216,0.723-5.833,0.826-7.834,0.31c-2.006-0.521-3.634-1.662-4.883-3.423c-1.318-1.864-1.839-3.978-1.574-6.339
				c0.265-2.365,1.647-4.431,4.131-6.187c1.033-0.738,2.125-1.234,3.261-1.49c1.141-0.26,1.967-0.571,2.483-0.934
				c0.31-0.222,0.556-0.546,0.713-0.979c0.167-0.422,0.339-0.944,0.531-1.554l6.629,6.718l-0.718,0.969
				c-2.547-2.065-4.819-3.133-6.811-3.192c-1.987-0.059-3.812,0.497-5.469,1.667c-1.755,1.249-2.714,2.7-2.862,4.357
				s0.482,3.472,1.869,5.434c0.738,1.033,1.942,1.697,3.619,1.982C488.401,557.712,490.609,557.584,493.339,557.047z"/>
		</g>
		<path fill="#FFFFFF" d="M291.077,265.277c0,0-2.199-39.775-50.438-65.574c-48.234-25.799-62.49-36.554-72.356-36.554
			c0,0,27.901-55.241,115.116-63.426c72.107-11.542,170.717,16.101,221.46,87.075c0,0,33.617,42.387,37.272,105.355l-27.402,2.149
			c0,0,2.188-46.228-48.244-87.08c0,0,25.219,32.251,26.315,78.479l-24.122,4.298c0,0,1.097-36.549-43.852-56.973
			c0,0,29.601,40.848,31.794,68.801l-19.735,12.904c0,0,2.198-26.876-37.272-50.531c0,0,25.214,34.405,21.924,86.008l-335.484,1.077
			c0,0-3.28-29.03,35.093-35.482c38.364-6.452,33.982,7.525,70.158,11.828C227.484,331.928,300.942,346.982,291.077,265.277z"/>
		<path fill="#FFFFFF" d="M514.73,304.138h30.692c0,0,21.929,120.6-97.575,209.401c-119.498,88.806-271.892-5.484-287.236-20.832
			l24.117-20.832c0,0,98.671,74.554,203.918,37.277l-9.865-19.736l30.697-25.214l23.02,24.122
			C432.499,488.325,523.498,413.766,514.73,304.138z"/>
		<polygon fill="#FFFFFF" points="401.669,455.379 372.713,475.942 357.185,446.986 378.781,431.313 		"/>
		<polygon fill="#FFFFFF" points="351.374,436.796 371.454,423.486 357.605,406.28 340.819,416.351 		"/>
		<polygon fill="#FFFFFF" points="334.029,404.402 351.73,393.69 340.727,379.823 327.321,387.087 		"/>
	</g>
	<path fill="#FFFFFF" d="M323.408,0.411c-178.388,0-323,144.612-323,323s144.612,323,323,323s323-144.612,323-323
		S501.797,0.411,323.408,0.411z M323.408,638.986c-174.287,0-315.575-141.288-315.575-315.575S149.121,7.836,323.408,7.836
		s315.575,141.288,315.575,315.575S497.696,638.986,323.408,638.986z"/>
	<path fill="#FFFFFF" d="M323.408,70.833c-139.495,0-252.578,113.083-252.578,252.578s113.083,252.578,252.578,252.578
		s252.578-113.083,252.578-252.578S462.904,70.833,323.408,70.833z M323.408,570.183c-136.288,0-246.772-110.483-246.772-246.772
		S187.12,76.639,323.408,76.639S570.18,187.123,570.18,323.411S459.697,570.183,323.408,570.183z"/>
</g>
</svg>
