<?xml version="1.0" encoding="utf-8"?>
<!-- Generator: Adobe Illustrator 19.0.0, SVG Export Plug-In . SVG Version: 6.00 Build 0)  -->
<svg version="1.1" id="图形" xmlns="http://www.w3.org/2000/svg" xmlns:xlink="http://www.w3.org/1999/xlink" x="0px" y="0px"
	 viewBox="15.167 -16.333 1000.636 1000.678" enable-background="new 15.167 -16.333 1000.636 1000.678" xml:space="preserve">
<g id="圆角矩形_1_拷贝_5">
	<g>
		<path fill="#25BCFC" d="M900.088,426.943H688.556v-171.19c0-10.505-8.61-19.021-19.23-19.021h-57.69v-95.106
			c0-10.505-8.61-19.021-19.23-19.021h-57.69V65.541c0-10.505-8.61-19.021-19.23-19.021c-10.621,0-19.23,8.516-19.23,19.021v57.063
			h-57.69c-10.621,0-19.23,8.516-19.23,19.021v95.106h-57.69c-10.62,0-19.23,8.516-19.23,19.021v323.359H130.882
			c-10.621,0-19.23,8.516-19.23,19.021V902.47c0,10.505,8.61,19.021,19.23,19.021h769.206c10.621,0,19.23-8.516,19.23-19.021
			V445.964C919.318,435.458,910.708,426.943,900.088,426.943z M265.193,799.39c0,0.448-0.363,0.811-0.811,0.811h-74.797
			c-0.448,0-0.811-0.363-0.811-0.811v-36.237c0-0.448,0.363-0.811,0.811-0.811h74.797c0.448,0,0.811,0.363,0.811,0.811V799.39z
			 M265.193,723.672c0,0.448-0.363,0.811-0.811,0.811h-74.797c-0.448,0-0.811-0.363-0.811-0.811v-36.237
			c0-0.448,0.363-0.811,0.811-0.811h74.797c0.448,0,0.811,0.363,0.811,0.811V723.672z M380.874,799.39
			c0,0.448-0.363,0.811-0.811,0.811h-75.498c-0.448,0-0.811-0.363-0.811-0.811v-36.237c0-0.448,0.363-0.811,0.811-0.811h75.498
			c0.448,0,0.811,0.363,0.811,0.811V799.39z M380.874,723.672c0,0.448-0.363,0.811-0.811,0.811h-75.498
			c-0.448,0-0.811-0.363-0.811-0.811v-36.237c0-0.448,0.363-0.811,0.811-0.811h75.498c0.448,0,0.811,0.363,0.811,0.811V723.672z
			 M457.995,539.971c0,0.455-0.369,0.824-0.824,0.824h-36.912c-0.455,0-0.824-0.369-0.824-0.824V313.762
			c0-0.455,0.369-0.824,0.824-0.824h36.912c0.455,0,0.824,0.369,0.824,0.824V539.971z M534.414,844.248
			c0,0.455-0.369,0.824-0.824,0.824h-36.211c-0.455,0-0.824-0.369-0.824-0.824V313.762c0-0.455,0.369-0.824,0.824-0.824h36.211
			c0.455,0,0.824,0.369,0.824,0.824V844.248z M611.535,426.393c0,0.455-0.369,0.824-0.824,0.824h-36.912
			c-0.455,0-0.824-0.369-0.824-0.824V313.762c0-0.455,0.369-0.824,0.824-0.824h36.912c0.455,0,0.824,0.369,0.824,0.824V426.393z
			 M727.217,799.39c0,0.448-0.363,0.811-0.811,0.811h-75.498c-0.448,0-0.811-0.363-0.811-0.811v-36.237
			c0-0.448,0.363-0.811,0.811-0.811h75.498c0.448,0,0.811,0.363,0.811,0.811V799.39z M727.217,723.672
			c0,0.448-0.363,0.811-0.811,0.811h-75.498c-0.448,0-0.811-0.363-0.811-0.811v-36.237c0-0.448,0.363-0.811,0.811-0.811h75.498
			c0.448,0,0.811,0.363,0.811,0.811V723.672z M727.217,647.252c0,0.448-0.363,0.811-0.811,0.811h-75.498
			c-0.448,0-0.811-0.363-0.811-0.811v-36.237c0-0.448,0.363-0.811,0.811-0.811h75.498c0.448,0,0.811,0.363,0.811,0.811V647.252z
			 M727.217,571.533c0,0.448-0.363,0.811-0.811,0.811h-75.498c-0.448,0-0.811-0.363-0.811-0.811v-36.237
			c0-0.448,0.363-0.811,0.811-0.811h75.498c0.448,0,0.811,0.363,0.811,0.811V571.533z M842.197,799.39
			c0,0.448-0.363,0.811-0.811,0.811h-74.797c-0.448,0-0.811-0.363-0.811-0.811v-36.237c0-0.448,0.363-0.811,0.811-0.811h74.797
			c0.448,0,0.811,0.363,0.811,0.811V799.39z M842.197,723.672c0,0.448-0.363,0.811-0.811,0.811h-74.797
			c-0.448,0-0.811-0.363-0.811-0.811v-36.237c0-0.448,0.363-0.811,0.811-0.811h74.797c0.448,0,0.811,0.363,0.811,0.811V723.672z
			 M842.197,647.252c0,0.448-0.363,0.811-0.811,0.811h-74.797c-0.448,0-0.811-0.363-0.811-0.811v-36.237
			c0-0.448,0.363-0.811,0.811-0.811h74.797c0.448,0,0.811,0.363,0.811,0.811V647.252z M842.197,571.533
			c0,0.448-0.363,0.811-0.811,0.811h-74.797c-0.448,0-0.811-0.363-0.811-0.811v-36.237c0-0.448,0.363-0.811,0.811-0.811h74.797
			c0.448,0,0.811,0.363,0.811,0.811V571.533z"/>
	</g>
</g>
</svg>
