<?xml version="1.0" encoding="utf-8"?>
<!-- Generator: Adobe Illustrator 19.0.0, SVG Export Plug-In . SVG Version: 6.00 Build 0)  -->
<svg version="1.1" id="图形" xmlns="http://www.w3.org/2000/svg" xmlns:xlink="http://www.w3.org/1999/xlink" x="0px" y="0px"
	 viewBox="15.167 -16.333 1000.636 1000.678" enable-background="new 15.167 -16.333 1000.636 1000.678" xml:space="preserve">
<g id="我的经费卡">
	<g>
		<path fill-rule="evenodd" clip-rule="evenodd" fill="#25BCFC" d="M714.428,496.92c-52.083,0-94.305,42.222-94.305,94.305v6.093
			c-0.001-0.221-0.064-0.426-0.064-0.647v-49.857c0-55.073,44.065-99.716,98.422-99.716h196.845V235.198H152.552
			c-24.921,0-47.611-9.459-64.95-24.929h-8.867v585.838c0,68.841,55.082,124.645,123.028,124.645h713.562V696.685h36.909V496.92
			H714.428z M792.245,598.143c0,12.894-10.452,23.346-23.346,23.346h-39.748c-12.894,0-23.346-10.452-23.346-23.346v-2.68
			c0-12.894,10.452-23.346,23.346-23.346h39.748c12.894,0,23.346,10.452,23.346,23.346V598.143z M147.697,193.095h587.68V47.259
			h-587.68c-38.086,0-68.96,30.875-68.96,68.96v7.916C78.736,162.22,109.611,193.095,147.697,193.095z"/>
	</g>
</g>
</svg>
