<?xml version="1.0" encoding="utf-8"?>
<!-- Generator: Adobe Illustrator 19.0.0, SVG Export Plug-In . SVG Version: 6.00 Build 0)  -->
<svg version="1.1" id="图形" xmlns="http://www.w3.org/2000/svg" xmlns:xlink="http://www.w3.org/1999/xlink" x="0px" y="0px"
	 viewBox="15.167 -16.333 1000.636 1000.678" enable-background="new 15.167 -16.333 1000.636 1000.678" xml:space="preserve">
<g id="指定报销人">
	<g>
		<path fill-rule="evenodd" clip-rule="evenodd" fill="#FFB400" d="M472.083,370.874c-0.032-0.31-0.07-0.618-0.101-0.941
			c-1.948-18.128-5.739-56.857,5.264-94.235H128.59c-27.276,0-49.388,24.094-49.388,53.816v65.247h382.84
			C463.785,386.085,466.609,377.724,472.083,370.874z M741.059,587.893l0.016-56.168c10.305-16.315,20.845-37.263,26.392-61.382
			c10.457-4.936,19.256-15.624,24.726-30.601c7.694-21.054,8.269-50.066-6.674-68.868c0.03-0.294,0.061-0.586,0.091-0.88
			c2.831-26.375,10.357-96.432-30.694-142.395c-24.387-27.3-61.241-41.152-109.519-41.152c-48.262,0-85.108,13.836-109.495,41.136
			c-41.043,45.917-33.564,115.974-30.749,142.349c0.031,0.324,0.069,0.632,0.101,0.941c-14.945,18.833-14.362,47.875-6.652,68.929
			c5.471,14.962,14.263,25.636,24.703,30.571c10.242,44.56,37.591,78.878,48.883,91.588c-0.636,8.467-2.324,17.151-4.127,20.915
			c-49.058,9.856-229.033,87.44-229.033,182.837v15.794h-34.321v-15.794c0-26.141,12.47-51.416,31.311-74.804l-175.693,1.339
			c-11.569,0-20.948-8.296-20.948-18.529v-0.463c0-10.233,9.379-18.529,20.948-18.529l213.136-1.716
			c51.055-43.191,116.791-75.061,146.816-85.011c1.33-3.957,2.514-12.22,4.156-20.915c-18.229-25.556-20.572-28.899-34.176-76.713
			c-10.745-4.418-19.365-15.609-24.873-30.571c-0.048-0.13-0.06-0.289-0.107-0.419H79.201v288.364
			c0,29.721,22.112,53.816,49.388,53.816h612.414v-0.056h210.765v-15.794C951.768,679.73,805.842,608.397,741.059,587.893z
			 M139.378,576.909c0-10.233,9.379-18.529,20.948-18.529l171.337-2.789c10.386,0,18.805,8.324,18.805,18.593v0.465
			c0,10.269-8.419,18.593-18.805,18.593l-171.337,2.659c-11.569,0-20.948-8.296-20.948-18.529V576.909z"/>
	</g>
</g>
</svg>
