<?xml version="1.0" encoding="utf-8"?>
<!-- Generator: Adobe Illustrator 19.0.0, SVG Export Plug-In . SVG Version: 6.00 Build 0)  -->
<svg version="1.1" id="图形" xmlns="http://www.w3.org/2000/svg" xmlns:xlink="http://www.w3.org/1999/xlink" x="0px" y="0px"
	 viewBox="15.167 -16.333 1000.636 1000.678" enable-background="new 15.167 -16.333 1000.636 1000.678" xml:space="preserve">
<g id="形状_14_拷贝_3">
	<g>
		<path fill="#71C241" d="M265.029,330.203c0,0,36.97,27.567,104.236,0l62.543-40.822c0,0,28.126-13.784,62.542,0l225.115,126.132
			c0,0,60.926,36.874,97.346,19.423l136.181-84.323L723.671,85.274h-20.847l-20.847,20.411l-41.695,40.822
			c0,0-53.125,27.568-125.084,0c0,0-88.562-42.386-166.78,20.411l-104.237,61.232c0,0-25.35,15.508-11.445,51.398L265.029,330.203z
			 M423.28,324.23l-40.748,39.823c-59.98,17.37-101.867,0-101.867,0c-42.209-18.457-61.12-59.736-61.12-59.736h-20.373
			L76.929,523.355l611.206,358.429l203.735-338.517L504.774,324.23C468.12,307.944,423.28,324.23,423.28,324.23z M502.048,562.906
			c10.849-7.757,23.367-17.307,37.467-26.383l70.185-42.619l43.525,27.506l-124.977,63.39l41.839,26.442l-13.778,20.9l-52.98-33.479
			l-15.383,23.334l52.979,33.477l-13.795,20.926l-52.98-33.477l-37.756,57.272l-39.149-24.741l37.757-57.269l-52.308-33.056
			l13.795-20.924l52.309,33.055l15.384-23.338l-52.308-33.055l13.778-20.9l41.859,26.452l10.559-135.695l44.551,28.151
			l-12.238,80.201c-2.64,16.333-5.581,29.511-9.017,43.398L502.048,562.906z"/>
	</g>
</g>
</svg>
